<?xml version="1.0" encoding="utf-8"?>
<!-- Generator: Adobe Illustrator 19.2.1, SVG Export Plug-In . SVG Version: 6.00 Build 0)  -->
<svg version="1.1" id="Layer_1" xmlns="http://www.w3.org/2000/svg" xmlns:xlink="http://www.w3.org/1999/xlink" x="0px" y="0px"
	 viewBox="0 0 115.3 136.1" enable-background="new 0 0 115.3 136.1" xml:space="preserve">
<path fill="#00AEEF" d="M99.6,71.6l15.7-9.1l-10.6-7.3l6.6-11.4l-12.5-1.3l1.8-11l-9.6-0.6l-0.5-9.4L83.6,23l-1.7-7.7l-6.6,3
	L71.9,12l-6.3,3.3L57.2,0l-7.5,15.3L43.4,12l-3.4,6.2l-6.6-3L31.8,23l-6.8-1.6l-0.5,9.4l-9.6,0.6l1.8,11L4,43.7l6.6,11.4L0,62.4
	l15.5,9l-5.2,7.7l10.3,1.2L18,88l9.3-1.5c0,0.1,0,0.1,0,0.1l-10.1,23.8l1.1,0.8c0.4,0.3,9,6.8,21.1,7.1v2.7l-17.8,15.1h71.5
	l-17.8-15.1v-2.9c11.7-1.1,19.9-6.6,20.2-6.9l1.2-0.8L86.4,85.7L99,87.1l-3.8-6.7l8.5-0.7L99.6,71.6z"/>
<polygon fill="#060608" points="97.3,70.9 112,62.3 102.3,55.7 108.4,45.2 96.7,44 98.5,33 89.2,32.4 88.7,23.6 82.2,25.1 
	80.6,17.8 74.5,20.6 71.1,14.4 64.8,17.8 57.3,3.9 50.5,17.8 44.2,14.4 40.9,20.6 34.7,17.8 33.1,25.1 26.6,23.6 26.1,32.4 16.8,33 
	18.6,44 6.9,45.2 13,55.7 3.3,62.3 18,70.9 13.4,77.7 23,78.8 20.6,85.8 39.1,82.8 55.7,80.2 57.7,20.3 59.6,80.2 76.2,82.8 
	95.8,84.9 92.3,78.8 100.9,78.1 "/>
<g>
	<g>
		<path fill="#00AEEF" d="M61.8,36.8c-0.1-1.4-0.2-2.9-0.4-4.4c-1-0.7-2.1-1.1-3.4-1.1c-1.3,0-2.5,0.5-3.5,1.3
			c-0.1,1.4-0.2,2.8-0.3,4.3c1.1-0.7,2.4-1,3.8-1C59.4,35.9,60.6,36.2,61.8,36.8z"/>
		<path fill="#FFFFFF" d="M55.8,24.6c-0.3,1.4-0.6,3-0.9,4.8c1-0.4,2-0.7,3.1-0.7c1,0,2,0.2,2.9,0.6c-0.3-1.5-0.6-3.1-1-4.8
			c-0.6-0.2-1.2-0.3-1.9-0.3C57.2,24.1,56.5,24.3,55.8,24.6z"/>
		<path fill="#00AEEF" d="M58,21.5c0.4,0,0.8,0,1.2,0.1c-0.4-1.4-0.8-2.8-1.3-4.3c0,0-0.7,1.6-1.4,4.4C57,21.6,57.5,21.5,58,21.5z"
			/>
		<path fill="#00AEEF" d="M58,38.4c-1.4,0-2.8,0.6-3.8,1.5c0.1,5.3,1.1,11.1,3.5,16.7c0,0,4.1-5.1,4.1-16.7
			C60.8,39,59.5,38.4,58,38.4z"/>
	</g>
	<g>
		<path fill="#FFFFFF" d="M69.2,31.6c-0.8-0.6-1.8-1-2.9-1.2c-0.3-0.1-0.7-0.1-1-0.1c0.4-1,0.8-2,1.2-2.9c0.2,0,0.4,0,0.6,0.1
			c0.8,0.1,1.5,0.4,2.1,0.9C69.3,29.5,69.3,30.6,69.2,31.6z"/>
		<path fill="#00AEEF" d="M63.3,36.6c0.4-1.4,0.8-2.7,1.2-3.9c0.5-0.1,1-0.1,1.5,0c1.3,0.2,2.3,0.9,3.1,1.8
			c-0.1,1.2-0.2,2.3-0.3,3.4c-0.9-0.7-2-1.2-3.1-1.4C64.9,36.4,64.1,36.4,63.3,36.6z"/>
		<path fill="#00AEEF" d="M65.3,38.7c1.3,0.2,2.3,0.9,3.1,1.8C66.5,52.2,62,56.5,62,56.5c-1-6.2-0.4-12.2,0.7-17.5
			C63.5,38.7,64.4,38.6,65.3,38.7z"/>
		<path fill="#00AEEF" d="M67.5,25.3c0.8-1.7,1.4-2.7,1.4-2.7c0.1,1.1,0.2,2.2,0.2,3.2C68.7,25.6,68.1,25.4,67.5,25.3z"/>
	</g>
	<g>
		<path fill="#FFFFFF" d="M72.3,35.6c0.5-0.9,0.9-1.8,1.4-2.6c0.4,0.1,0.7,0.2,1.1,0.3c0.4,0.2,0.9,0.4,1.2,0.7
			c-0.2,1.1-0.3,2.2-0.5,3.2c-0.6-0.5-1.3-1-2.1-1.3C72.9,35.8,72.6,35.7,72.3,35.6z"/>
		<path fill="#00AEEF" d="M72.3,38.3c1,0.4,1.8,1.1,2.5,2c-3.4,14.5-9.1,19.3-9.1,19.3c0.1-8.2,2.8-15.9,5.5-21.7
			C71.5,38.1,71.9,38.2,72.3,38.3z"/>
		<path fill="#00AEEF" d="M75.7,31c-0.2-0.1-0.5-0.2-0.7-0.2c1-1.6,1.6-2.5,1.6-2.5c-0.1,1-0.2,2.1-0.3,3
			C76.1,31.2,75.9,31.1,75.7,31z"/>
	</g>
	<g>
		<path fill="#00AEEF" d="M81.3,74.3c-0.9-0.5-1.8-1-2.6-1.4c0.5-0.3,1-0.8,1.4-1.3c0.2-0.3,0.4-0.6,0.5-0.9c0.8,0.7,1.4,1.4,2,2.1
			c-0.1,0.2-0.2,0.4-0.4,0.6C82,73.8,81.7,74.1,81.3,74.3z"/>
		<path fill="#FFFFFF" d="M83.7,74.6c0.1-0.1,0.1-0.2,0.2-0.3c1,1.2,1.5,1.9,1.5,1.9c-0.8-0.3-1.5-0.7-2.3-1
			C83.3,75,83.5,74.8,83.7,74.6z"/>
	</g>
	<g>
		<path fill="#00AEEF" d="M85,71.3c-1.2-0.4-2.3-0.7-3.3-1.1c0.5-0.5,1-1.1,1.3-1.7c0.2-0.4,0.3-0.7,0.4-1.1c1,0.7,1.9,1.3,2.7,2
			c-0.1,0.3-0.2,0.6-0.3,0.8C85.6,70.5,85.3,70.9,85,71.3z"/>
		<path fill="#FFFFFF" d="M87.7,71c0.1-0.1,0.1-0.2,0.2-0.4c1.3,1.1,2.1,1.9,2.1,1.9c-1-0.2-1.9-0.4-2.8-0.7
			C87.4,71.6,87.6,71.3,87.7,71z"/>
	</g>
	<g>
		<path fill="#FFFFFF" d="M93.9,64.7c-1.4,0.3-2.8,0.6-4.1,0.8c0.3-0.8,0.4-1.7,0.3-2.7c0-0.5-0.1-1-0.2-1.4
			c1.5,0.1,2.8,0.3,4.1,0.4c0.1,0.3,0.1,0.7,0.2,1.1C94.1,63.5,94,64.1,93.9,64.7z"/>
		<path fill="#00AEEF" d="M83.7,61.3c1.2,0,2.4,0,3.5,0c0.2,0.5,0.3,1.1,0.4,1.7c0,1-0.2,2-0.7,2.9c-1.2,0.1-2.3,0.2-3.3,0.3
			c0.4-0.9,0.5-2,0.5-3C84,62.5,83.9,61.9,83.7,61.3z"/>
		<path fill="#00AEEF" d="M96.7,62.8c0-0.2,0-0.3,0-0.5c2.1,0.4,3.4,0.8,3.4,0.8c-1.2,0.4-2.3,0.7-3.4,1
			C96.7,63.6,96.7,63.2,96.7,62.8z"/>
	</g>
	<g>
		<path fill="#FFFFFF" d="M92.5,54.3c-1.2,0.9-2.4,1.7-3.5,2.4c-0.1-0.9-0.3-1.7-0.7-2.6c-0.2-0.4-0.5-0.9-0.8-1.2
			c1.4-0.5,2.7-0.9,3.9-1.2c0.2,0.3,0.4,0.6,0.6,0.9C92.2,53.2,92.4,53.7,92.5,54.3z"/>
		<path fill="#00AEEF" d="M81.7,55.2c1.1-0.5,2.2-1,3.2-1.4c0.4,0.4,0.7,0.9,1,1.4c0.5,0.9,0.6,2,0.5,3c-1,0.6-2,1.1-2.9,1.5
			c0-1-0.3-2-0.7-3C82.5,56.2,82.1,55.7,81.7,55.2z"/>
		<path fill="#00AEEF" d="M94.3,51.5c-0.1-0.1-0.1-0.3-0.2-0.4c2.1-0.5,3.4-0.6,3.4-0.6c-0.9,0.8-1.8,1.5-2.7,2.2
			C94.6,52.2,94.5,51.9,94.3,51.5z"/>
	</g>
	<g>
		<path fill="#FFFFFF" d="M87.7,45.6c-0.9,1.2-1.7,2.3-2.5,3.4c-0.4-0.8-0.9-1.5-1.5-2.2c-0.3-0.3-0.7-0.7-1.1-0.9
			c1.2-0.9,2.3-1.7,3.3-2.4c0.3,0.2,0.6,0.4,0.8,0.7C87.1,44.6,87.4,45.1,87.7,45.6z"/>
		<path fill="#00AEEF" d="M77.9,49.9c0.9-0.8,1.7-1.6,2.6-2.4c0.5,0.3,1,0.6,1.4,1c0.7,0.7,1.2,1.6,1.5,2.6
			c-0.8,0.9-1.5,1.7-2.3,2.4c-0.4-0.9-0.9-1.8-1.7-2.6C78.9,50.6,78.4,50.3,77.9,49.9z"/>
		<path fill="#00AEEF" d="M88.5,42.3c-0.1-0.1-0.2-0.2-0.4-0.3c1.8-1.1,3-1.7,3-1.7c-0.6,1-1.2,2-1.8,3C89,42.9,88.8,42.6,88.5,42.3
			z"/>
	</g>
	<g>
		<path fill="#FFFFFF" d="M81.3,39.4c-0.5,1.4-1,2.7-1.4,4c-0.6-0.7-1.3-1.2-2.1-1.7c-0.4-0.2-0.9-0.4-1.3-0.6
			c0.9-1.2,1.7-2.3,2.5-3.2c0.3,0.1,0.7,0.2,1,0.4C80.5,38.5,80.9,38.9,81.3,39.4z"/>
		<path fill="#00AEEF" d="M73.1,46.3c0.6-1,1.2-2,1.8-3c0.6,0.1,1.1,0.3,1.6,0.6c0.9,0.5,1.6,1.2,2.2,2.1c-0.5,1.1-1,2.1-1.5,3
			c-0.6-0.8-1.4-1.5-2.3-2C74.3,46.7,73.7,46.5,73.1,46.3z"/>
		<path fill="#00AEEF" d="M81.1,36c-0.1-0.1-0.3-0.2-0.4-0.2c1.4-1.6,2.4-2.5,2.4-2.5c-0.3,1.2-0.6,2.3-0.9,3.4
			C81.9,36.4,81.5,36.2,81.1,36z"/>
	</g>
	<g>
		<path fill="#FFFFFF" d="M46.3,31.6c0.8-0.6,1.8-1,2.9-1.2c0.3-0.1,0.7-0.1,1-0.1c-0.4-1-0.8-2-1.2-2.9c-0.2,0-0.4,0-0.6,0.1
			c-0.8,0.1-1.5,0.4-2.1,0.9C46.3,29.5,46.3,30.6,46.3,31.6z"/>
		<path fill="#00AEEF" d="M52.3,36.6c-0.4-1.4-0.8-2.7-1.2-3.9c-0.5-0.1-1-0.1-1.5,0c-1.3,0.2-2.3,0.9-3.1,1.8
			c0.1,1.2,0.2,2.3,0.3,3.4c0.9-0.7,2-1.2,3.1-1.4C50.7,36.4,51.5,36.4,52.3,36.6z"/>
		<path fill="#00AEEF" d="M50.3,38.7c-1.3,0.2-2.3,0.9-3.1,1.8c1.9,11.6,6.5,15.9,6.5,15.9c1-6.2,0.4-12.2-0.7-17.5
			C52.1,38.7,51.2,38.6,50.3,38.7z"/>
		<path fill="#00AEEF" d="M48,25.3c-0.8-1.7-1.4-2.7-1.4-2.7c-0.1,1.1-0.2,2.2-0.2,3.2C46.9,25.6,47.5,25.4,48,25.3z"/>
	</g>
	<g>
		<path fill="#FFFFFF" d="M43.3,35.6c-0.5-0.9-0.9-1.8-1.4-2.6c-0.4,0.1-0.7,0.2-1.1,0.3c-0.4,0.2-0.9,0.4-1.2,0.7
			c0.2,1.1,0.3,2.2,0.5,3.2c0.6-0.5,1.3-1,2.1-1.3C42.7,35.8,43,35.7,43.3,35.6z"/>
		<path fill="#00AEEF" d="M43.3,38.3c-1,0.4-1.8,1.1-2.5,2c3.4,14.5,9.1,19.3,9.1,19.3c-0.1-8.2-2.8-15.9-5.5-21.7
			C44.1,38.1,43.7,38.2,43.3,38.3z"/>
		<path fill="#00AEEF" d="M39.9,31c0.2-0.1,0.5-0.2,0.7-0.2c-1-1.6-1.6-2.5-1.6-2.5c0.1,1,0.2,2.1,0.3,3
			C39.5,31.2,39.7,31.1,39.9,31z"/>
	</g>
	<g>
		<path fill="#00AEEF" d="M34.3,74.3c0.9-0.5,1.8-1,2.6-1.4c-0.5-0.3-1-0.8-1.4-1.3c-0.2-0.3-0.4-0.6-0.5-0.9
			c-0.8,0.7-1.4,1.4-2,2.1c0.1,0.2,0.2,0.4,0.4,0.6C33.6,73.8,33.9,74.1,34.3,74.3z"/>
		<path fill="#00AEEF" d="M40.4,67.9c0.4,0.6,1,1,1.7,1.3c4.1-3.5,5.1-6.2,5.1-6.2c-2.7,0.9-5.2,2.2-7.4,3.7
			C39.9,67.2,40.1,67.6,40.4,67.9z"/>
		<path fill="#FFFFFF" d="M31.9,74.6c-0.1-0.1-0.1-0.2-0.2-0.3c-1,1.2-1.5,1.9-1.5,1.9c0.8-0.3,1.5-0.7,2.3-1
			C32.2,75,32.1,74.8,31.9,74.6z"/>
	</g>
	<g>
		<path fill="#00AEEF" d="M30.9,71.5c1.2-0.4,2.3-0.7,3.3-1.1c-0.5-0.5-1-1.1-1.3-1.7c-0.2-0.4-0.3-0.7-0.4-1.1
			c-1,0.7-1.9,1.3-2.7,2c0.1,0.3,0.2,0.6,0.3,0.8C30.3,70.7,30.6,71.1,30.9,71.5z"/>
		<path fill="#00AEEF" d="M38.2,65.6c0.4,0.8,1,1.4,1.7,1.8c5.4-3.2,7-6.1,7-6.1c-3.3,0.5-6.4,1.5-9.2,2.8
			C37.8,64.7,38,65.2,38.2,65.6z"/>
		<path fill="#FFFFFF" d="M28,71.1c-0.1-0.1-0.1-0.2-0.2-0.4c-1.3,1.1-2.1,1.9-2.1,1.9c1-0.2,1.9-0.4,2.8-0.7
			C28.4,71.7,28.2,71.4,28,71.1z"/>
	</g>
	<g>
		<path fill="#FFFFFF" d="M21.7,64.7c1.4,0.3,2.8,0.6,4.1,0.8c-0.3-0.8-0.4-1.7-0.3-2.7c0-0.5,0.1-1,0.2-1.4
			c-1.5,0.1-2.8,0.3-4.1,0.4c-0.1,0.3-0.1,0.7-0.2,1.1C21.5,63.5,21.5,64.1,21.7,64.7z"/>
		<path fill="#00AEEF" d="M31.9,61.3c-1.2,0-2.4,0-3.5,0c-0.2,0.5-0.3,1.1-0.4,1.7c0,1,0.2,2,0.7,2.9c1.2,0.1,2.3,0.2,3.3,0.3
			c-0.4-0.9-0.5-2-0.5-3C31.6,62.5,31.7,61.9,31.9,61.3z"/>
		<path fill="#00AEEF" d="M18.9,62.8c0-0.2,0-0.3,0-0.5c-2.1,0.4-3.4,0.8-3.4,0.8c1.2,0.4,2.3,0.7,3.4,1
			C18.9,63.6,18.9,63.2,18.9,62.8z"/>
	</g>
	<g>
		<path fill="#FFFFFF" d="M23.1,54.3c1.2,0.9,2.4,1.7,3.5,2.4c0.1-0.9,0.3-1.7,0.7-2.6c0.2-0.4,0.5-0.9,0.8-1.2
			c-1.4-0.5-2.7-0.9-3.9-1.2c-0.2,0.3-0.4,0.6-0.6,0.9C23.4,53.2,23.2,53.7,23.1,54.3z"/>
		<path fill="#00AEEF" d="M33.9,55.2c-1.1-0.5-2.2-1-3.2-1.4c-0.4,0.4-0.7,0.9-1,1.4c-0.5,0.9-0.6,2-0.5,3c1,0.6,2,1.1,2.9,1.5
			c0-1,0.3-2,0.7-3C33.1,56.2,33.5,55.7,33.9,55.2z"/>
		<path fill="#00AEEF" d="M21.3,51.5c0.1-0.1,0.1-0.3,0.2-0.4c-2.1-0.5-3.4-0.6-3.4-0.6c0.9,0.8,1.8,1.5,2.7,2.2
			C21,52.2,21.1,51.9,21.3,51.5z"/>
	</g>
	<g>
		<path fill="#FFFFFF" d="M27.9,45.6c0.9,1.2,1.7,2.3,2.5,3.4c0.4-0.8,0.9-1.5,1.5-2.2c0.3-0.3,0.7-0.7,1.1-0.9
			c-1.2-0.9-2.3-1.7-3.3-2.4c-0.3,0.2-0.6,0.4-0.8,0.7C28.5,44.6,28.1,45.1,27.9,45.6z"/>
		<path fill="#00AEEF" d="M37.7,49.9c-0.9-0.8-1.7-1.6-2.6-2.4c-0.5,0.3-1,0.6-1.4,1c-0.7,0.7-1.2,1.6-1.5,2.6
			c0.8,0.9,1.5,1.7,2.3,2.4c0.4-0.9,0.9-1.8,1.7-2.6C36.7,50.6,37.2,50.3,37.7,49.9z"/>
		<path fill="#00AEEF" d="M27.1,42.3c0.1-0.1,0.2-0.2,0.4-0.3c-1.8-1.1-3-1.7-3-1.7c0.6,1,1.2,2,1.8,3
			C26.5,42.9,26.8,42.6,27.1,42.3z"/>
	</g>
	<g>
		<path fill="#FFFFFF" d="M34.2,39.4c0.5,1.4,1,2.7,1.4,4c0.6-0.7,1.3-1.2,2.1-1.7c0.4-0.2,0.9-0.4,1.3-0.6
			c-0.9-1.2-1.7-2.3-2.5-3.2c-0.3,0.1-0.7,0.2-1,0.4C35.1,38.5,34.6,38.9,34.2,39.4z"/>
		<path fill="#00AEEF" d="M42.4,46.3c-0.6-1-1.2-2-1.8-3c-0.6,0.1-1.1,0.3-1.6,0.6c-0.9,0.5-1.6,1.2-2.2,2.1c0.5,1.1,1,2.1,1.5,3
			c0.6-0.8,1.4-1.5,2.3-2C41.2,46.7,41.8,46.5,42.4,46.3z"/>
		<path fill="#00AEEF" d="M34.4,36c0.1-0.1,0.3-0.2,0.4-0.2c-1.4-1.6-2.4-2.5-2.4-2.5c0.3,1.2,0.6,2.3,0.9,3.4
			C33.7,36.4,34.1,36.2,34.4,36z"/>
	</g>
</g>
<path fill="#040404" d="M83.5,53.6l-34.3-7.3l-13.5,5.5c0,0-6.5,0.7-8.6,5.8S28.1,67,27,69s-0.7,5,4.8,5.2s12.3-0.7,14.6-0.8
	s13.3,0.3,18.1,0.5s11.6,1.5,11.6,1.5l5.2-1"/>
<polygon fill="#060608" points="73.5,121.9 73.5,98.9 62.5,98.7 62.5,98.7 57.4,98.7 52.2,98.7 52.2,98.7 41.2,98.9 41.2,121.9 
	26.5,134.3 88.2,134.3 "/>
<path fill="#060608" d="M36.1,70.1c0,0-4,0.5-6.3,13.1c0.3-0.4,0.2,1.7,0.2,1.7l-10.6,24.9c0,0,11,8.4,25.3,6.4c0,0,0.2-45.7,0-45.5
	c-0.2,0.2-8.9-0.7-8.9-0.7"/>
<path fill="#060707" d="M86,62.6c0.1,0.4-3.5,7.9-4.2,8c-0.7,0.1-3.7,1.1-4.9,0s-1.2-4.5-2.4-5.2c-1.1-0.7,1.2-4.5,1.2-4.5"/>
<path fill-rule="evenodd" clip-rule="evenodd" fill="#060608" d="M53.1,113.5c1.7,1,3.1,1.2,5.1,1.1c3.8-0.1,7.7-3.1,9.8-5
	c6.7-6.6,11.2-18.3,11.2-18.3c2.1-2.7,2.7-8.7,1.3-10.6c0.8-3.7,0.8-8.1,0-11.8c-2.9-9.9-14.7-16.1-14.7-16.1
	c-1.4-0.5-3.3-1-4.9-1.1c-1,0-2.3,0.6-2.7,1.5c-0.4-0.9-1.7-1.5-2.7-1.5c-9.1,0.4-16.8,9.2-18.9,15C35,71.1,35,76,35.9,80.6
	c-1.5,1.9-0.8,7.9,1.3,10.6c0,0,0,0,0,0c0.7,0.7,2.6,2.7,3,3.4c0.4,0.9,2.6,11.7,12.7,18.6C52.9,113.3,53,113.4,53.1,113.5z"/>
<path fill-rule="evenodd" clip-rule="evenodd" fill="#D7893F" d="M58.4,69.6c0.9,6.7,11.7,7.3,14.1,12.5c2.2,4.7,0.4,10.1-1.3,14.7
	c0.5-0.3,1-0.7,1.5-1.3c-0.5,2.1-0.6,4.4-1.8,6.2c-2.2,3.4-5.9,7.2-8.3,9.4c-1.3,1.1-2.3,1.1-4.2,1.1c-1.9,0-2.9,0-4.2-1.1
	c-2.5-2.1-6.1-5.9-8.3-9.4c-1.2-1.8-1.3-4.2-1.8-6.2c0.5,0.6,1,1,1.5,1.3c-1.7-4.6-3.5-10-1.3-14.7C46.7,76.9,57.5,76.3,58.4,69.6"
	/>
<path fill-rule="evenodd" clip-rule="evenodd" fill="#060608" d="M58.3,98.2c1.3,0,2.8-1.4,4.1-1.5c0-1.2-0.6-2.1-1.4-2.7
	c1,0,2.4,1.4,2.7,2.6c0.4,1.3-1,1.1-1.7,1.3c-1.6,0.4-2.1,1.5-3.7,1.5c-1.6,0-2.1-1.1-3.7-1.5c-0.7-0.2-2.1,0.1-1.7-1.3
	c0.3-1.2,1.7-2.6,2.7-2.6c-0.8,0.7-1.4,1.5-1.4,2.7C55.6,96.8,57.1,98.2,58.3,98.2"/>
<path fill-rule="evenodd" clip-rule="evenodd" fill="#060608" d="M58.3,101.6c1.9-1.1,2.5-0.3,6.7,0.9c-0.1-0.6-0.3-1.4-0.5-2.3
	c1.9,2.2,2.1,3.8,1,3.8c-0.9-0.4-3-1-4.4-1.2c-0.3,0-1.6,0.3-2.7,0.3c-1,0-2.4-0.3-2.7-0.3c-1.4,0.2-3.5,0.8-4.4,1.2
	c-1.1,0-0.9-1.6,1-3.8c-0.3,0.9-0.5,1.7-0.5,2.3C55.9,101.4,56.4,100.5,58.3,101.6"/>
<path fill-rule="evenodd" clip-rule="evenodd" fill="#060608" d="M58.3,105.4c1.5,0,3-0.3,4.6-0.4c-1.5,1.8-2.7,2.9-4.6,2.9
	c-1.8,0-3.1-1.1-4.6-2.9C55.3,105.1,56.8,105.4,58.3,105.4"/>
<path fill-rule="evenodd" clip-rule="evenodd" fill="#FFFFFF" d="M47.4,86.7l1.3,0.9c0,0,2.3,0.6,4.1-0.2c-1-1.5-2-2-2-2
	s-0.3-0.2-0.4,0c-0.2,0.1-0.6,0.2-0.8,0.2C49.3,85.7,47.4,86.7,47.4,86.7z"/>
<path fill-rule="evenodd" clip-rule="evenodd" fill="#060608" d="M55.6,83.5c0.8,1.5,0,2.2-0.5,1.8c-2.6-1-4.9-3.8-7.8-2.9
	c-2.1,0.7-3.1,3.2-1.6,3.8c-0.3-1.1,0.3-1.6,0.8-1.8c1.1-0.4,1.6,0,2.5,0.5c-1,0.4-2.1,0.8-2.6,2.1c0.5,0.6,1.3,0.8,2.3,0.7
	c-0.3-0.3-0.5-0.7-0.7-1c0.3-0.2,0.6-0.3,0.9-0.3c0.4,1.5,1.9,1.5,3.6,0.8c-0.5,1.5-2.6,2.4-4.9,1.9c0.9,1.9,4.5,1.5,6.7-1
	c0.7,0.5,1.1,1.3,1.3,2.3c0.4-0.7,0.5-2.2,0.4-4C57.2,85.4,56.6,83.7,55.6,83.5"/>
<path fill-rule="evenodd" clip-rule="evenodd" fill="#FFFFFF" d="M69.4,86.7l-1.3,0.9c0,0-2.3,0.6-4.1-0.2c1-1.5,2-2,2-2
	s0.3-0.2,0.4,0c0.2,0.1,0.6,0.2,0.8,0.2C67.5,85.7,69.4,86.7,69.4,86.7z"/>
<path fill-rule="evenodd" clip-rule="evenodd" fill="#060608" d="M61.2,83.5c-0.8,1.5,0,2.2,0.5,1.8c2.6-1,4.9-3.8,7.8-2.9
	c2.1,0.7,3.1,3.2,1.6,3.8c0.3-1.1-0.3-1.6-0.8-1.8c-1.1-0.4-1.6,0-2.5,0.5c1,0.4,2.1,0.8,2.6,2.1c-0.5,0.6-1.3,0.8-2.3,0.7
	c0.3-0.3,0.5-0.7,0.7-1c-0.3-0.2-0.6-0.3-0.9-0.3c-0.4,1.5-1.9,1.5-3.6,0.8c0.5,1.5,2.6,2.4,4.9,1.9c-0.9,1.9-4.5,1.5-6.7-1
	c-0.7,0.5-1.1,1.3-1.3,2.3c-0.4-0.7-0.5-2.2-0.4-4C59.6,85.4,60.2,83.7,61.2,83.5"/>
<g>
	<path fill-rule="evenodd" clip-rule="evenodd" fill="#F99E49" d="M54.9,96c1.7,0.6,2.3,1.4,3.5,1.5c1.1,0,1.8-0.9,3.5-1.5
		c-0.2-0.8-1-1.5-1-1.5l-1,0.7L60,94l-0.4-6.7l-1.3-0.6l-1.3,0.6L56.7,94l0.2,1.2l-1-0.7C55.9,94.5,55.1,95.2,54.9,96z"/>
	<path fill-rule="evenodd" clip-rule="evenodd" fill="#F99E49" d="M53.3,82.6c-0.7-1.8-1.7-3-1.7-3s4.9,0.8,6.8,3.7
		c1.9-2.9,6.8-3.7,6.8-3.7s-1,1.1-1.7,3c2.3-1.9,6.4-1.3,6.3-1.5c-1.9-2.6-4-2.4-7.2-4.4c-3.1-2-4.2-3.5-4.2-3.5s-1.1,1.5-4.2,3.5
		c-3.1,2-5.3,1.8-7.2,4.4C46.9,81.3,51,80.7,53.3,82.6z"/>
	<path fill-rule="evenodd" clip-rule="evenodd" fill="#F99E49" d="M48.8,97c0,0,4-2.8,4.8-6.4c-5.4,2.3-8.3-1.9-8.3-1.9
		C44.1,93.3,48.8,97,48.8,97z"/>
	<path fill-rule="evenodd" clip-rule="evenodd" fill="#F99E49" d="M47.8,102.1c0,0,0.4,1.7,2.2,2.9c-1.5-2.1,1.4-7.3,1.4-7.3
		C48.9,100,47.8,102.1,47.8,102.1z"/>
	<path fill-rule="evenodd" clip-rule="evenodd" fill="#F99E49" d="M57.1,100.7v-1l-3-1.2c0,0-1.2,1.9-1.5,3.1
		c1.8-0.9,3.6-1.1,3.6-1.1L57.1,100.7z"/>
	<path fill-rule="evenodd" clip-rule="evenodd" fill="#F99E49" d="M63,90.7c0.8,3.6,4.8,6.4,4.8,6.4s4.8-3.7,3.4-8.2
		C71.2,88.8,68.4,93,63,90.7z"/>
	<path fill-rule="evenodd" clip-rule="evenodd" fill="#F99E49" d="M65.3,97.7c0,0,2.9,5.2,1.4,7.3c1.8-1.2,2.2-2.9,2.2-2.9
		S67.8,100,65.3,97.7z"/>
	<path fill-rule="evenodd" clip-rule="evenodd" fill="#F99E49" d="M58.3,108.8c0,0-2.3,0.2-3.5-0.7c0,2.3,0.9,3,0.9,3
		s1.2,0.5,2.6,0.5v0c1.4,0,2.6-0.5,2.6-0.5s0.9-0.8,0.9-3C60.7,109.1,58.3,108.8,58.3,108.8z"/>
	<path fill-rule="evenodd" clip-rule="evenodd" fill="#F99E49" d="M59.6,99.7v1l1-0.2c0,0,1.8,0.2,3.6,1.1c-0.3-1.2-1.5-3.1-1.5-3.1
		L59.6,99.7z"/>
</g>
<path fill-rule="evenodd" clip-rule="evenodd" fill="#D7893F" d="M44.8,81.3c0.2,0,27.2,0,27.2,0s-2.8-6.5-4.1-7s-6.9-2.3-9.1-2.3
	s-7.8,1.1-8.6,1.1"/>
<path fill-rule="evenodd" clip-rule="evenodd" fill="#060608" d="M41.4,79.8c0.5,0,15.6,0,15.6,0l1.7-3.1l1.8,3.2h1.5l0.7-1.5
	l0.8,1.7h12c0,0,1.7-13.9-4.1-16.4c-5.9-2.5-10.7-5.1-14.8-3.5c-4.1,1.5-9.5,3.3-11.3,4.6"/>
<path fill-rule="evenodd" clip-rule="evenodd" fill="#060608" d="M46.4,87c0,0,1.5,2.6,6.4,0.5c0,0,0.3-1.6,0.2-1.7s-3-0.6-3.1-0.5
	C49.8,85.4,46.4,87,46.4,87z"/>
<path fill-rule="evenodd" clip-rule="evenodd" fill="#060608" d="M70.4,87c0,0-1.1,1.9-6.3,1c-5.1-0.9,0-1.7,0-1.7s4.4-0.6,4.4-0.6
	C68.7,85.7,70.4,87,70.4,87z"/>
<path fill-rule="evenodd" clip-rule="evenodd" fill="#060608" d="M58.6,83.4v14c0,0,0.6-0.1,1.3-0.5c0.7-0.4,1.8-0.9,1.8-0.9
	s-0.3-1.1-1-1.5l-0.9,0.7L60,94v-6.5l1.4-1.4L58.6,83.4z"/>
<path fill-rule="evenodd" clip-rule="evenodd" fill="#060608" d="M61.5,88c0,0.2,0,5.9,0,5.9l1.5-3.2c0,0,1.3,4.7,4.8,6.4
	c0,0,3.9-0.4,6.4-7.4c0,0-1.1,11.2-4.6,14.5c0,0-2.5-4.7-4.6-6.7c-2.1-2-2.7-2.6-2.7-2.6s0,1.1-1,1.2c-1,0.1-1.8,0.4-1.9-0.1
	c-0.1-0.4,0-9.9,0.1-10.2c0.1-0.4,1.9,0.7,1.9,0.7l1.1,1"/>
<path fill="#060608" d="M58.6,83.4v14c0,0,1.8-0.1,3.8-1.8l0.5-4.9c0,0-1.3-3,0.8-4.1c2.1-1.1-3.6,0.7-3.7,0.7"/>
<path fill="#060608" d="M62.8,88.1c0,0,1.1,7,5.1,8.8c0,0,2.8-1.1,6.7-6.3c3.9-5.2-0.4,5.8-0.4,5.8s-2.6,2.8-3.5,3.2
	c-0.9,0.4-1.9,0.3-2.1,0.2c-0.2-0.1-6.1-5.6-6.3-5.9s-2.3-2.7-2.3-3c0-0.4,0.2-2.2,0.2-2.2l0.4-1.3l0.7-0.7"/>
<path fill="#060608" d="M73.5,87.4c0,0-0.5,6.6-5.6,9.5s3.6,1.6,3.7,1.5c0.1-0.1,5.8-7.8,6-8.8c0.2-1,1-3.1,0.5-3.6
	c-0.5-0.5-1.9-0.9-1.9-0.9"/>
<path fill="#060608" d="M63.3,95.7l1.2,4.5l1.6,2.8l-3.5,2.1c0,0,0.9,6.4-2.6,7.8c-3.5,1.4,3.7-0.5,4.1-0.9c0.3-0.4,7.4-6.6,7.6-7.7
	s0.7-4.1,0.7-4.1l-2-0.8"/>
<path fill="#060608" d="M71.6,79.5L70.3,83l1.1,1.9c0,0,0,1.5-2.6,1.7c0,0,2.3,0.1,2.4,2.8c0.1,2.7-0.5,5-3.4,7.5
	c-2.9,2.5-1.4,3.7-0.6,3.7c0.8,0,6.5-6.1,6.5-6.1s1.7-0.2,2.5-5.4c0.8-5.2,2-7.7,0.9-9.2s-0.2-0.7-1.4-2c-1.1-1.2-1.5-1.1-1.5-1.1"
	/>
<polyline fill="#060608" points="70.5,83.3 65.3,78.1 74.6,77.9 "/>
<path fill-rule="evenodd" clip-rule="evenodd" fill="#F99E49" d="M48.7,113.4c0,0,6.7,5.3,17,1.5l-6.2,9.8l-4-1.3l2.7,3.2l-1,2.5
	H41.6l6.2-2.7v-10l5.7,3.8C53.5,120.2,49.8,116.1,48.7,113.4z"/>
<g>
	<polygon fill-rule="evenodd" clip-rule="evenodd" fill="#00AEEF" points="42.2,101.1 43.9,109.5 41,111.7 41,100.7 	"/>
	<polygon fill-rule="evenodd" clip-rule="evenodd" fill="#00AEEF" points="39.1,101.1 37.4,109.5 40.3,111.7 40.3,100.7 	"/>
	<path fill-rule="evenodd" clip-rule="evenodd" fill="#00AEEF" d="M40.5,99.8c1,0,1.8,0.6,2.2,1.4c0.2-0.3,0.2-0.7,0.2-1.1
		c0-1.3-1.1-2.4-2.4-2.4s-2.4,1.1-2.4,2.4c0,0.4,0.1,0.7,0.2,1.1C38.7,100.4,39.5,99.8,40.5,99.8z"/>
	<g>
		<polygon fill-rule="evenodd" clip-rule="evenodd" fill="#00AEEF" points="77.8,101.1 79.5,109.5 76.6,111.7 76.6,100.7 		"/>
		<polygon fill-rule="evenodd" clip-rule="evenodd" fill="#00AEEF" points="74.7,101.1 73,109.5 75.9,111.7 75.9,100.7 		"/>
		<path fill-rule="evenodd" clip-rule="evenodd" fill="#00AEEF" d="M76.1,99.8c1,0,1.8,0.6,2.2,1.4c0.2-0.3,0.2-0.7,0.2-1.1
			c0-1.3-1.1-2.4-2.4-2.4c-1.3,0-2.4,1.1-2.4,2.4c0,0.4,0.1,0.7,0.2,1.1C74.3,100.4,75.1,99.8,76.1,99.8z"/>
	</g>
</g>
<path fill="#060707" d="M33.2,35.4c0,0,8.3-4.2,21.4-4.3s25.6,3.9,25.6,3.9s1.4,1.4,1.2,1.3C81.2,36,69.7,64,69.7,64
	S54,62.8,49.8,63.4s-5.6,1.1-5.6,0.8C44.1,64,33.2,35.4,33.2,35.4z"/>
<path fill="#060707" d="M47.4,54.6c-0.4-0.1-2.8-1.4-4.2-0.9c-1.4,0.5-7.1,5.4-7.9,6.1c-0.8,0.7-7.5,6-7.5,6.4s1.9,4.1,2.5,4.2
	c0.7,0.1,5.5,0.7,5.7,0.8c0.2,0.1,2.4-0.8,2.2-0.2c-0.2,0.5,1,1.9,0.8,2.5C38.8,74,38.8,74,38.8,74s-0.4,1.7,0.1,1.8
	c0.4,0.1,1.9-0.1,3.4-0.5c1.5-0.4,18,0,18.3-0.5c0.4-0.5,4-1.4,5.4-1.1c1.4,0.2,4.8,1.8,6.2,2.1c1.4,0.3,3.3,1.1,3.4,0.7
	s-0.4-4.5-0.5-5s0.7-1.9,0.7-1.9s0.3-0.6,1.4-0.9c1.1-0.3,2.4,0.4,1.9-1.3c-0.5-1.7-0.5-4.4-1.1-4.6s5.1,7.7,5.9,7.7
	s3.1-4.2,2.8-4.8c-0.3-0.7-2.5-3-4.1-4.5c-1.6-1.5-2.9-3-4.5-4.3c-1.6-1.3-5.3-6.4-6.8-7.2c-1.5-0.8-5.3-2.2-5.3-2.2s-4.5-1.5-6.6-1
	c-2.1,0.5-6.2,1.1-6.2,1.1"/>
<path fill="none" stroke="#E20D8D" stroke-miterlimit="10" d="M70.8,84.4"/>
<path fill="#060608" d="M76.8,56.3l9.9-23l-3.8-1.7c-16.5-7.1-35.5-7.1-52,0l-3.8,1.7l10,23c-7.5,4.1-8.7,8.9-8.8,10.9l-1,15.5
	l6.6-14c0-0.1,0.7-1.2,2.3-2.7l2.2,1.7l0,0v0l0,0l0.1,0.1c-0.3,1-0.6,2-0.8,3L37.5,72c-0.2,0.2-0.4,0.3-0.6,0.5l0.4,0.4l-0.7,2.7
	l2.6-0.7l1.6,2c0,0,0,0-0.2,0.1c0,0,3.5-2.1,16.7-2.1c13,0,16.3,2,16.3,2c-0.1-0.1-0.2-0.2-0.2-0.2l1.7-1.9l2.8,0.7L77.3,73l0.4-0.3
	c-0.2-0.2-0.4-0.4-0.6-0.7l-0.3-1.2c-0.3-1.1-0.6-2.2-0.9-3.4l2.1-1.2c1.4,1.3,2,2.4,2.1,2.5l6.5,13.9l-0.9-15.4
	C85.6,65.2,84.4,60.3,76.8,56.3z"/>
<path fill="#00AEEF" d="M75.6,67.6c-2.9-5.1-15.1-5.2-18.1-5.2c0,0,0,0,0,0s-0.1,0-0.3,0c-0.2,0-0.3,0-0.3,0s0,0,0,0
	c-3,0.1-14.4-0.1-18.5,5.3c0,0,3.3-3.9,18.8-3.9C72.7,63.9,75.6,67.6,75.6,67.6z"/>
<path fill="#00AEEF" d="M75.4,74.6c-2.9-3.5-14.8-3.6-17.8-3.6c0,0,0,0,0,0s-0.1,0-0.3,0c-0.2,0-0.3,0-0.3,0s0,0,0,0
	c-3,0-14.1-0.1-18.1,3.6c0,0,3.2-2.7,18.4-2.7C72.5,72,75.4,74.6,75.4,74.6z"/>
<path fill="#00AEEF" d="M46.3,64.1l-12.1-28c14.5-5.9,31-5.9,45.5,0L67.5,64.3h2.6l12.7-29.4l-1.1-0.5c-15.8-6.8-33.9-6.8-49.6,0
	L31,34.8l12.7,29.3H46.3z"/>
<g>
	<g>
		
			<rect x="55.7" y="55.8" transform="matrix(-1 -1.224647e-16 1.224647e-16 -1 114.6025 112.3791)" fill="#00AEEF" width="3.2" height="0.9"/>
		
			<rect x="56.9" y="54.6" transform="matrix(6.123234e-17 -1 1 6.123234e-17 3.4126 113.4908)" fill="#00AEEF" width="3.2" height="0.9"/>
	</g>
	<g>
		
			<rect x="54.6" y="57.1" transform="matrix(6.123234e-17 -1 1 6.123234e-17 -1.3643 113.6659)" fill="#00AEEF" width="3.2" height="0.9"/>
		<rect x="55.7" y="58.2" fill="#00AEEF" width="3.2" height="0.9"/>
	</g>
	<g>
		
			<rect x="55.7" y="51" transform="matrix(-1 -1.224647e-16 1.224647e-16 -1 114.6025 102.7846)" fill="#00AEEF" width="3.2" height="0.9"/>
		
			<rect x="56.9" y="49.8" transform="matrix(6.123234e-17 -1 1 6.123234e-17 8.2099 108.6936)" fill="#00AEEF" width="3.2" height="0.9"/>
	</g>
	<g>
		
			<rect x="54.6" y="52.3" transform="matrix(6.123234e-17 -1 1 6.123234e-17 3.4329 108.8686)" fill="#00AEEF" width="3.2" height="0.9"/>
		<rect x="55.7" y="53.4" fill="#00AEEF" width="3.2" height="0.9"/>
	</g>
	<g>
		
			<rect x="55.7" y="46.2" transform="matrix(-1 -1.224647e-16 1.224647e-16 -1 114.6025 93.2532)" fill="#00AEEF" width="3.2" height="0.9"/>
		
			<rect x="56.9" y="45" transform="matrix(6.123234e-17 -1 1 6.123234e-17 12.9756 103.9278)" fill="#00AEEF" width="3.2" height="0.9"/>
	</g>
	<g>
		
			<rect x="54.6" y="47.5" transform="matrix(6.123234e-17 -1 1 6.123234e-17 8.1987 104.1029)" fill="#00AEEF" width="3.2" height="0.9"/>
		<rect x="55.7" y="48.7" fill="#00AEEF" width="3.2" height="0.9"/>
	</g>
	<g>
		
			<rect x="55.7" y="41.4" transform="matrix(-1 -1.224647e-16 1.224647e-16 -1 114.6025 83.6586)" fill="#00AEEF" width="3.2" height="0.9"/>
		
			<rect x="56.9" y="40.2" transform="matrix(6.123234e-17 -1 1 6.123234e-17 17.7729 99.1306)" fill="#00AEEF" width="3.2" height="0.9"/>
	</g>
	<g>
		
			<rect x="54.6" y="42.7" transform="matrix(6.123234e-17 -1 1 6.123234e-17 12.9959 99.3056)" fill="#00AEEF" width="3.2" height="0.9"/>
		<rect x="55.7" y="43.9" fill="#00AEEF" width="3.2" height="0.9"/>
	</g>
</g>
<g>
	<g>
		
			<rect x="63.8" y="57" transform="matrix(0.9277 0.3734 -0.3734 0.9277 26.1925 -20.2566)" fill="#00AEEF" width="3.2" height="0.9"/>
		
			<rect x="63.2" y="55.5" transform="matrix(0.3734 -0.9277 0.9277 0.3734 -11.3637 95.1329)" fill="#00AEEF" width="3.2" height="0.9"/>
	</g>
	<g>
		
			<rect x="64.4" y="58.7" transform="matrix(0.3734 -0.9277 0.9277 0.3734 -13.5335 98.2328)" fill="#00AEEF" width="3.2" height="0.9"/>
		
			<rect x="62.9" y="59.3" transform="matrix(-0.9277 -0.3734 0.3734 -0.9277 101.9261 139.29)" fill="#00AEEF" width="3.2" height="0.9"/>
	</g>
	<g>
		
			<rect x="65.6" y="52.6" transform="matrix(0.9277 0.3734 -0.3734 0.9277 24.6603 -21.2475)" fill="#00AEEF" width="3.2" height="0.9"/>
		
			<rect x="64.9" y="51.1" transform="matrix(0.3734 -0.9277 0.9277 0.3734 -6.113 94.0064)" fill="#00AEEF" width="3.2" height="0.9"/>
	</g>
	<g>
		
			<rect x="66.2" y="54.3" transform="matrix(0.3734 -0.9277 0.9277 0.3734 -8.2827 97.1063)" fill="#00AEEF" width="3.2" height="0.9"/>
		
			<rect x="64.7" y="54.9" transform="matrix(-0.9277 -0.3734 0.3734 -0.9277 107.0412 131.3804)" fill="#00AEEF" width="3.2" height="0.9"/>
	</g>
	<g>
		
			<rect x="67.4" y="48.2" transform="matrix(0.9277 0.3734 -0.3734 0.9277 23.1381 -22.2319)" fill="#00AEEF" width="3.2" height="0.9"/>
		
			<rect x="66.7" y="46.7" transform="matrix(0.3734 -0.9277 0.9277 0.3734 -0.8968 92.8872)" fill="#00AEEF" width="3.2" height="0.9"/>
	</g>
	<g>
		
			<rect x="67.9" y="49.8" transform="matrix(0.3734 -0.9277 0.9277 0.3734 -3.0665 95.9871)" fill="#00AEEF" width="3.2" height="0.9"/>
		
			<rect x="66.4" y="50.5" transform="matrix(-0.9277 -0.3734 0.3734 -0.9277 112.1227 123.5229)" fill="#00AEEF" width="3.2" height="0.9"/>
	</g>
	<g>
		
			<rect x="69.2" y="43.7" transform="matrix(0.9277 0.3734 -0.3734 0.9277 21.6059 -23.2228)" fill="#00AEEF" width="3.2" height="0.9"/>
		
			<rect x="68.5" y="42.2" transform="matrix(0.3734 -0.9277 0.9277 0.3734 4.354 91.7607)" fill="#00AEEF" width="3.2" height="0.9"/>
	</g>
	<g>
		
			<rect x="69.7" y="45.4" transform="matrix(0.3734 -0.9277 0.9277 0.3734 2.1843 94.8606)" fill="#00AEEF" width="3.2" height="0.9"/>
		
			<rect x="68.2" y="46" transform="matrix(-0.9277 -0.3734 0.3734 -0.9277 117.2378 115.6134)" fill="#00AEEF" width="3.2" height="0.9"/>
	</g>
</g>
<g>
	<g>
		
			<rect x="47.6" y="57" transform="matrix(-0.9277 0.3734 -0.3734 -0.9277 116.3484 92.4119)" fill="#00AEEF" width="3.2" height="0.9"/>
		
			<rect x="48.3" y="55.5" transform="matrix(-0.3734 -0.9277 0.9277 -0.3734 16.5511 123.1364)" fill="#00AEEF" width="3.2" height="0.9"/>
	</g>
	<g>
		
			<rect x="47.1" y="58.7" transform="matrix(-0.3734 -0.9277 0.9277 -0.3734 11.9616 126.3488)" fill="#00AEEF" width="3.2" height="0.9"/>
		
			<rect x="48.6" y="59.3" transform="matrix(0.9277 -0.3734 0.3734 0.9277 -18.6929 23.0506)" fill="#00AEEF" width="3.2" height="0.9"/>
	</g>
	<g>
		
			<rect x="45.8" y="52.6" transform="matrix(-0.9277 0.3734 -0.3734 -0.9277 111.2333 84.5023)" fill="#00AEEF" width="3.2" height="0.9"/>
		
			<rect x="46.5" y="51.1" transform="matrix(-0.3734 -0.9277 0.9277 -0.3734 18.219 115.3625)" fill="#00AEEF" width="3.2" height="0.9"/>
	</g>
	<g>
		
			<rect x="45.3" y="54.3" transform="matrix(-0.3734 -0.9277 0.9277 -0.3734 13.6295 118.5749)" fill="#00AEEF" width="3.2" height="0.9"/>
		
			<rect x="46.8" y="54.9" transform="matrix(0.9277 -0.3734 0.3734 0.9277 -17.1607 22.0597)" fill="#00AEEF" width="3.2" height="0.9"/>
	</g>
	<g>
		
			<rect x="44.1" y="48.2" transform="matrix(-0.9277 0.3734 -0.3734 -0.9277 106.1518 76.6448)" fill="#00AEEF" width="3.2" height="0.9"/>
		
			<rect x="44.7" y="46.7" transform="matrix(-0.3734 -0.9277 0.9277 -0.3734 19.8759 107.6397)" fill="#00AEEF" width="3.2" height="0.9"/>
	</g>
	<g>
		
			<rect x="43.5" y="49.8" transform="matrix(-0.3734 -0.9277 0.9277 -0.3734 15.2864 110.8521)" fill="#00AEEF" width="3.2" height="0.9"/>
		
			<rect x="45" y="50.5" transform="matrix(0.9277 -0.3734 0.3734 0.9277 -15.6385 21.0753)" fill="#00AEEF" width="3.2" height="0.9"/>
	</g>
	<g>
		
			<rect x="42.3" y="43.7" transform="matrix(-0.9277 0.3734 -0.3734 -0.9277 101.0367 68.7352)" fill="#00AEEF" width="3.2" height="0.9"/>
		
			<rect x="42.9" y="42.2" transform="matrix(-0.3734 -0.9277 0.9277 -0.3734 21.5438 99.8658)" fill="#00AEEF" width="3.2" height="0.9"/>
	</g>
	<g>
		
			<rect x="41.7" y="45.4" transform="matrix(-0.3734 -0.9277 0.9277 -0.3734 16.9543 103.0782)" fill="#00AEEF" width="3.2" height="0.9"/>
		
			<rect x="43.2" y="46" transform="matrix(0.9277 -0.3734 0.3734 0.9277 -14.1063 20.0844)" fill="#00AEEF" width="3.2" height="0.9"/>
	</g>
</g>
<g>
	<path fill="#00AEEF" d="M40.8,36.2l0.9,2.7l-1.5,0.5l-0.9-2.7L40.8,36.2z"/>
	<path fill="#00AEEF" d="M44.5,35.3l0.6,2.8l-1.5,0.3L43,35.6L44.5,35.3z"/>
	<path fill="#00AEEF" d="M48.3,34.6l0.4,2.8l-1.5,0.2l-0.4-2.8L48.3,34.6z"/>
	<path fill="#00AEEF" d="M52.1,34.2l0.2,2.8l-1.5,0.1l-0.2-2.8L52.1,34.2z"/>
	<path fill="#00AEEF" d="M55.9,34l0.1,2.8l-1.5,0l-0.1-2.8L55.9,34z"/>
	<path fill="#00AEEF" d="M59.7,34.1l-0.1,2.8L58,36.8l0.1-2.8L59.7,34.1z"/>
	<path fill="#00AEEF" d="M63.5,34.4l-0.3,2.8L61.6,37l0.3-2.8L63.5,34.4z"/>
	<path fill="#00AEEF" d="M67.2,34.9l-0.5,2.8l-1.5-0.3l0.5-2.8L67.2,34.9z"/>
	<path fill="#00AEEF" d="M71,35.8l-0.7,2.7l-1.5-0.4l0.7-2.7L71,35.8z"/>
	<path fill="#00AEEF" d="M74.6,36.9l-0.9,2.7l-1.5-0.5l0.9-2.7L74.6,36.9z"/>
</g>
<g>
	<path fill="#00AEEF" d="M45.7,70.5c-1.7,0.3-3.4,0.7-5.1,1.1c0.4-1.8,0.9-3.5,1.5-5.3C43.4,67.6,44.6,69,45.7,70.5z M42,70.2
		c0.6-0.1,1.3-0.3,1.9-0.4c-0.4-0.5-0.9-1-1.3-1.6C42.4,68.9,42.2,69.6,42,70.2z"/>
	<path fill="#00AEEF" d="M49.2,69.9c-1.7,0.2-3.4,0.5-5.1,0.8c0.5-1.7,1.1-3.5,1.8-5.2C47.1,67,48.2,68.5,49.2,69.9z M45.6,69.5
		c0.6-0.1,1.3-0.2,1.9-0.3c-0.4-0.5-0.8-1.1-1.2-1.6C46,68.2,45.8,68.9,45.6,69.5z"/>
	<path fill="#00AEEF" d="M52.7,69.6c-1.7,0.1-3.4,0.3-5.1,0.5c0.6-1.7,1.3-3.4,2-5.1C50.8,66.5,51.8,68.1,52.7,69.6z M49.1,69
		c0.6-0.1,1.3-0.1,1.9-0.2c-0.4-0.6-0.8-1.1-1.2-1.7C49.6,67.7,49.4,68.3,49.1,69z"/>
	<path fill="#00AEEF" d="M56.3,69.5c-1.7,0-3.4,0.1-5.1,0.3c0.7-1.7,1.5-3.3,2.3-5C54.5,66.3,55.4,67.9,56.3,69.5z M52.7,68.6
		c0.6,0,1.3-0.1,1.9-0.1c-0.3-0.6-0.7-1.2-1.1-1.7C53.3,67.4,53,68,52.7,68.6z"/>
	<path fill="#00AEEF" d="M59.8,69.5c-1.7-0.1-3.4-0.1-5.1,0c0.8-1.6,1.7-3.3,2.6-4.9C58.2,66.2,59,67.9,59.8,69.5z M56.3,68.5
		c0.6,0,1.3,0,1.9,0c-0.3-0.6-0.6-1.2-1-1.8C56.9,67.3,56.6,67.9,56.3,68.5z"/>
	<path fill="#00AEEF" d="M63.4,69.7c-1.7-0.2-3.4-0.2-5.1-0.3c0.9-1.6,1.8-3.2,2.8-4.7C61.9,66.4,62.7,68.1,63.4,69.7z M59.9,68.5
		c0.6,0,1.3,0.1,1.9,0.1c-0.3-0.6-0.6-1.2-0.9-1.8C60.6,67.4,60.2,68,59.9,68.5z"/>
	<path fill="#00AEEF" d="M66.9,70.2c-1.7-0.2-3.4-0.4-5.1-0.5c1-1.5,2-3.1,3.1-4.6C65.6,66.7,66.3,68.4,66.9,70.2z M63.5,68.8
		c0.6,0.1,1.3,0.1,1.9,0.2c-0.2-0.6-0.5-1.3-0.8-1.9C64.3,67.6,63.9,68.2,63.5,68.8z"/>
	<path fill="#00AEEF" d="M70.4,70.8c-1.7-0.3-3.4-0.6-5.1-0.8c1-1.5,2.2-3,3.3-4.4C69.3,67.3,69.9,69,70.4,70.8z M67.1,69.2
		c0.6,0.1,1.3,0.2,1.9,0.3c-0.2-0.6-0.4-1.3-0.7-1.9C67.9,68.1,67.5,68.7,67.1,69.2z"/>
	<path fill="#00AEEF" d="M73.9,71.6c-1.7-0.4-3.4-0.8-5.1-1.1c1.1-1.4,2.3-2.8,3.6-4.2C73,68,73.5,69.8,73.9,71.6z M70.6,69.8
		c0.6,0.1,1.3,0.3,1.9,0.4c-0.2-0.7-0.4-1.3-0.6-2C71.5,68.8,71.1,69.3,70.6,69.8z"/>
</g>
<path fill-rule="evenodd" clip-rule="evenodd" fill="#D7893F" d="M50.6,128.4v-10l5.7,3.8c0,0-3.7-4.1-4.7-6.9c0,0,4.6,3.7,12.2,2.7
	l2-3.2c-10.3,3.9-17-1.5-17-1.5c1.1,2.7,4.7,6.9,4.7,6.9l-5.7-3.8v10l-6.2,2.7H49L50.6,128.4z"/>
<path fill="#060608" d="M29.6,71.8c-0.9,1.2,0.1,4.9,0.1,4.9s1.3,1.8,2.8,1.6c1.5-0.3,2.8,0.1,2.8-0.5c0-0.7,2.4-6.3,1.5-6.3"/>
<g>
	<polygon fill="#FFFFFF" points="61.7,59.7 67.7,39.8 61,44.5 61,57.3 62.3,47 63.7,47.5 	"/>
	<polygon fill="#060608" points="64.1,46.3 62.6,45.9 65.4,43.1 	"/>
</g>
<g>
	<polygon fill="#FFFFFF" points="53.2,59.7 47.3,39.8 54,44.5 54,57.3 52.7,47 51.2,47.5 	"/>
	<polygon fill="#060608" points="50.9,46.3 52.4,45.9 49.6,43.1 	"/>
</g>
<path fill="#060608" d="M89.8,70.1c-0.1-0.1-0.6-0.6-1.4-1.3c0.1,0,0.3-0.1,0.4-0.1l0,0.2l3.5-0.9l0.7-0.2l0,0l0.6-0.2
	c1.1-0.3,2.2-0.6,3.2-0.9l11-3.4l-11.1-3.2c-0.1,0-1.3-0.4-3.4-0.8l-0.3-0.1l0,0l-1-0.1l-1.8-0.3l1.7-1.3l0.6-0.4l0,0l0.5-0.4
	c0.9-0.7,1.8-1.4,2.6-2.1l8.8-7.5l-11.5,1.4c-0.1,0-1.4,0.2-3.4,0.6l-0.3,0.1l0,0l-0.9,0.3l-1,0.2l0.8-1.3l0.4-0.6l0,0l0.4-0.6
	c0.6-0.9,1.2-1.9,1.8-2.8l5.9-9.9l-10.4,5.1c0,0-1.2,0.6-3,1.7l-0.3,0.2l0,0l-0.5,0.3l0-0.1l0.2-0.7l0,0l0.2-0.6
	c0.3-1.1,0.6-2.2,0.9-3.2l2.8-11.2L78,33.5c0,0-0.2,0.2-0.4,0.4c0.1-0.7,0.2-1.5,0.2-2.2L79,19.1l-7.4,10.3c0,0.1-0.2,0.3-0.5,0.8
	l0-0.4l0,0l0-0.8c0-1-0.1-2-0.2-3.1L70,15.2l-5.5,9.3c-0.1,0.1-0.6,1.1-1.4,2.7l0,0l-0.3,0.6l-0.6-2L62,25.3l0,0l-0.2-0.9
	c-0.4-1.4-0.8-2.8-1.2-4.1l-2.9-9.1L54,20.1c0,0.1-0.7,1.7-1.4,4.4l-0.3,1.1l0,0l-0.1,0.3L51.7,28l-0.4-0.8l0,0
	c-0.8-1.7-1.4-2.7-1.4-2.7l-5.5-9.3L43.4,26c-0.1,1-0.1,2-0.2,3.1l0,0.8l0,0l0,0.4c-0.3-0.5-0.5-0.8-0.5-0.8l-7.4-10.3l1.2,12.6
	c0.1,0.7,0.1,1.5,0.2,2.2c-0.2-0.2-0.4-0.4-0.4-0.4l-8.5-7.8l2.8,11.2c0.3,1.1,0.6,2.2,0.9,3.2l0.2,0.6l0,0l0.2,0.7l0,0.1l-0.5-0.3
	l0,0l-0.3-0.2c-1.8-1.1-3-1.7-3-1.7l-10.4-5.1l5.9,9.9c0.6,1,1.2,1.9,1.8,2.8l0.4,0.6l0,0l0.4,0.6l0.8,1.3l-1-0.2L24.9,49l0,0
	L24.6,49c-2-0.4-3.3-0.6-3.4-0.6L9.7,46.9l8.8,7.5c0.9,0.7,1.7,1.4,2.6,2.1l0.5,0.4l0,0l0.6,0.4l1.7,1.3L22.1,59l-1,0.1l0,0
	l-0.3,0.1c-2,0.4-3.3,0.7-3.4,0.8L6.3,63.2l11,3.4c1.1,0.3,2.1,0.6,3.2,0.9l0.6,0.2l0,0l0.7,0.2l3.5,0.9l0-0.2
	c0.2,0,0.3,0.1,0.4,0.1c-0.9,0.8-1.3,1.3-1.4,1.3l-7.4,6.7l10.2-0.9l-4.8,7.1l10.7-4.4c0.7-0.3,1.4-0.6,2.1-0.9l0,0l1-0.5l3.7-1.7
	l-0.2-0.2l0.2-0.1l0,0l0.7-0.4l3.9-2.3l-0.3-0.2l0,0l3.4-2.5l-0.4-0.2c1.1-1.2,1.9-2.2,2.4-3l1.6-0.2l0.4,0.1l0.5,0.3l0-0.1l1.5,1.2
	L53.4,64l0.6-0.3l-0.6-0.2l0-1.2l2.2,2.1l0.2-1.1l0.4,0.9l2-2.5l0.5,2.7l2.2-2.1l0,1.2l-0.6,0.2l0.6,0.3l-0.1,3.8l1.5-1.2l0,0.1
	l0.5-0.3l0.4-0.1l1.6,0.2c0.5,0.8,1.3,1.9,2.4,3l-0.4,0.2l3.4,2.5l0,0l-0.3,0.2l3.9,2.3l0.7,0.4l0,0l0.2,0.1l-0.2,0.2l3.7,1.7l1,0.5
	l0,0c0.7,0.3,1.4,0.6,2.1,0.9l10.7,4.4L87,75.9l10.9,2.4L89.8,70.1z"/>
<path fill="#060608" d="M89.8,70.1c-0.1-0.1-0.6-0.6-1.4-1.3c0.1,0,0.3-0.1,0.4-0.1l0,0.2l3.5-0.9l0.7-0.2l0,0l0.6-0.2
	c1.1-0.3,2.2-0.6,3.2-0.9l11-3.4l-11.1-3.2c-0.1,0-1.3-0.4-3.4-0.8l-0.3-0.1l0,0l-1-0.1l-1.8-0.3l1.7-1.3l0.6-0.4l0,0l0.5-0.4
	c0.9-0.7,1.8-1.4,2.6-2.1l8.8-7.5l-11.5,1.4c-0.1,0-1.4,0.2-3.4,0.6l-0.3,0.1l0,0l-0.9,0.3l-1,0.2l0.8-1.3l0.4-0.6l0,0l0.4-0.6
	c0.6-0.9,1.2-1.9,1.8-2.8l5.9-9.9l-10.4,5.1c0,0-1.2,0.6-3,1.7l-0.3,0.2l0,0l-0.5,0.3l0-0.1l0.2-0.7l0,0l0.2-0.6
	c0.3-1.1,0.6-2.2,0.9-3.2l2.8-11.2L78,33.5c0,0-0.2,0.2-0.4,0.4c0.1-0.7,0.2-1.5,0.2-2.2L79,19.1l-7.4,10.3c0,0.1-0.2,0.3-0.5,0.8
	l0-0.4l0,0l0-0.8c0-1-0.1-2-0.2-3.1L70,15.2l-5.5,9.3c-0.1,0.1-0.6,1.1-1.4,2.7l0,0l-0.3,0.6l-0.6-2L62,25.3l0,0l-0.2-0.9
	c-0.4-1.4-0.8-2.8-1.2-4.1l-2.9-9.1L54,20.1c0,0.1-0.7,1.7-1.4,4.4l-0.3,1.1l0,0l-0.1,0.3L51.7,28l-0.4-0.8l0,0
	c-0.8-1.7-1.4-2.7-1.4-2.7l-5.5-9.3L43.4,26c-0.1,1-0.1,2-0.2,3.1l0,0.8l0,0l0,0.4c-0.3-0.5-0.5-0.8-0.5-0.8l-7.4-10.3l1.2,12.6
	c0.1,0.7,0.1,1.5,0.2,2.2c-0.2-0.2-0.4-0.4-0.4-0.4l-8.5-7.8l2.8,11.2c0.3,1.1,0.6,2.2,0.9,3.2l0.2,0.6l0,0l0.2,0.7l0,0.1l-0.5-0.3
	l0,0l-0.3-0.2c-1.8-1.1-3-1.7-3-1.7l-10.4-5.1l5.9,9.9c0.6,1,1.2,1.9,1.8,2.8l0.4,0.6l0,0l0.4,0.6l0.8,1.3l-1-0.2L24.9,49l0,0
	L24.6,49c-2-0.4-3.3-0.6-3.4-0.6L9.7,46.9l8.8,7.5c0.9,0.7,1.7,1.4,2.6,2.1l0.5,0.4l0,0l0.6,0.4l1.7,1.3L22.1,59l-1,0.1l0,0
	l-0.3,0.1c-2,0.4-3.3,0.7-3.4,0.8L6.3,63.2l11,3.4c1.1,0.3,2.1,0.6,3.2,0.9l0.6,0.2l0,0l0.7,0.2l3.5,0.9l0-0.2
	c0.2,0,0.3,0.1,0.4,0.1c-0.9,0.8-1.3,1.3-1.4,1.3l-7.2,6.5l10-0.6l-4.8,7.1l10.7-4.4c0.7-0.3,1.4-0.6,2.1-0.9l0,0l1-0.5l3.7-1.7
	l-0.2-0.2l0.2-0.1l0,0l0.7-0.4l3.9-2.3l-0.3-0.2l0,0l3.4-2.5l-0.4-0.2c1.1-1.2,1.9-2.2,2.4-3l1.6-0.2l0.4,0.1l0.5,0.3l0-0.1l1.5,1.2
	L53.4,64l0.6-0.3l-0.6-0.2l0-1.2l2.2,2.1l0.2-1.1l0.4,0.9l2-2.5l0.5,2.7l2.2-2.1l0,1.2l-0.6,0.2l0.6,0.3l-0.1,3.8l1.5-1.2l0,0.1
	l0.5-0.3l0.4-0.1l1.6,0.2c0.5,0.8,1.3,1.9,2.4,3l-0.4,0.2l3.4,2.5l0,0l-0.3,0.2l3.9,2.3l0.7,0.4l0,0l0.2,0.1l-0.2,0.2l3.7,1.7l1,0.5
	l0,0c0.7,0.3,1.4,0.6,2.1,0.9l10.7,4.4L87,75.9l10.9,2.4L89.8,70.1z"/>
<g>
	<g>
		<path fill="#00AEEF" d="M61.1,36.8c-0.1-1.4-0.2-2.9-0.4-4.4c-1-0.7-2.1-1.1-3.4-1.1c-1.3,0-2.5,0.5-3.5,1.3
			c-0.1,1.4-0.2,2.8-0.3,4.3c1.1-0.7,2.4-1,3.8-1C58.7,35.9,60,36.2,61.1,36.8z"/>
		<path fill="#00AEEF" d="M55.1,24.6c-0.3,1.4-0.6,3-0.9,4.8c1-0.4,2-0.7,3.1-0.7c1,0,2,0.2,2.9,0.6c-0.3-1.5-0.6-3.1-1-4.8
			c-0.6-0.2-1.2-0.3-1.9-0.3C56.6,24.1,55.8,24.3,55.1,24.6z"/>
		<path fill="#00AEEF" d="M57.4,21.5c0.4,0,0.8,0,1.2,0.1c-0.4-1.4-0.8-2.8-1.3-4.3c0,0-0.7,1.6-1.4,4.4
			C56.3,21.6,56.8,21.5,57.4,21.5z"/>
		<path fill="#00AEEF" d="M57.4,38.4c-1.4,0-2.8,0.6-3.8,1.5c0.1,5.3,1.1,11.1,3.5,16.7c0,0,4.1-5.1,4.1-16.7
			C60.1,39,58.8,38.4,57.4,38.4z"/>
	</g>
	<g>
		<path fill="#00AEEF" d="M68.6,31.6c-0.8-0.6-1.8-1-2.9-1.2c-0.3-0.1-0.7-0.1-1-0.1c0.4-1,0.8-2,1.2-2.9c0.2,0,0.4,0,0.6,0.1
			c0.8,0.1,1.5,0.4,2.1,0.9C68.6,29.5,68.6,30.6,68.6,31.6z"/>
		<path fill="#00AEEF" d="M62.7,36.6c0.4-1.4,0.8-2.7,1.2-3.9c0.5-0.1,1-0.1,1.5,0c1.3,0.2,2.3,0.9,3.1,1.8
			c-0.1,1.2-0.2,2.3-0.3,3.4c-0.9-0.7-2-1.2-3.1-1.4C64.2,36.4,63.4,36.4,62.7,36.6z"/>
		<path fill="#00AEEF" d="M64.7,38.7c1.3,0.2,2.3,0.9,3.1,1.8c-1.9,11.6-6.5,15.9-6.5,15.9c-1-6.2-0.4-12.2,0.7-17.5
			C62.9,38.7,63.8,38.6,64.7,38.7z"/>
		<path fill="#00AEEF" d="M66.9,25.3c0.8-1.7,1.4-2.7,1.4-2.7c0.1,1.1,0.2,2.2,0.2,3.2C68,25.6,67.5,25.4,66.9,25.3z"/>
	</g>
	<g>
		<path fill="#00AEEF" d="M71.6,35.6c0.5-0.9,0.9-1.8,1.4-2.6c0.4,0.1,0.7,0.2,1.1,0.3c0.4,0.2,0.9,0.4,1.2,0.7
			c-0.2,1.1-0.3,2.2-0.5,3.2c-0.6-0.5-1.3-1-2.1-1.3C72.3,35.8,71.9,35.7,71.6,35.6z"/>
		<path fill="#00AEEF" d="M71.6,38.3c1,0.4,1.8,1.1,2.5,2C70.7,54.8,65,59.7,65,59.7c0.1-8.2,2.8-15.9,5.5-21.7
			C70.8,38.1,71.2,38.2,71.6,38.3z"/>
	</g>
	<g>
		<path fill="#FFFFFF" d="M80.7,74.3c-0.9-0.5-1.8-1-2.6-1.4c0.5-0.3,1-0.8,1.4-1.3c0.2-0.3,0.4-0.6,0.5-0.9c0.8,0.7,1.4,1.4,2,2.1
			c-0.1,0.2-0.2,0.4-0.4,0.6C81.3,73.8,81,74.1,80.7,74.3z"/>
		<path fill="#00AEEF" d="M83,74.6c0.1-0.1,0.1-0.2,0.2-0.3c1,1.2,1.5,1.9,1.5,1.9c-0.8-0.3-1.5-0.7-2.3-1
			C82.7,75,82.9,74.8,83,74.6z"/>
		<path fill="#00AEEF" d="M29.5,74.6c-0.1-0.1-0.1-0.2-0.2-0.3c-1,1.2-1.5,1.9-1.5,1.9c0.8-0.3,1.5-0.7,2.3-1
			C29.9,75,29.7,74.8,29.5,74.6z"/>
	</g>
	<g>
		<path fill="#FFFFFF" d="M84.3,71.3c-1.2-0.4-2.3-0.7-3.3-1.1c0.5-0.5,1-1.1,1.3-1.7c0.2-0.4,0.3-0.7,0.4-1.1c1,0.7,1.9,1.3,2.7,2
			c-0.1,0.3-0.2,0.6-0.3,0.8C85,70.5,84.7,70.9,84.3,71.3z"/>
		<path fill="#00AEEF" d="M87.1,71c0.1-0.1,0.1-0.2,0.2-0.4c1.3,1.1,2.1,1.9,2.1,1.9c-1-0.2-1.9-0.4-2.8-0.7
			C86.8,71.6,86.9,71.3,87.1,71z"/>
	</g>
	<g>
		<path fill="#00AEEF" d="M93.2,64.7c-1.4,0.3-2.8,0.6-4.1,0.8c0.3-0.8,0.4-1.7,0.3-2.7c0-0.5-0.1-1-0.2-1.4
			c1.5,0.1,2.8,0.3,4.1,0.4c0.1,0.3,0.1,0.7,0.2,1.1C93.5,63.5,93.4,64.1,93.2,64.7z"/>
		<path fill="#FFFFFF" d="M83,61.3c1.2,0,2.4,0,3.5,0c0.2,0.5,0.3,1.1,0.4,1.7c0,1-0.2,2-0.7,2.9c-1.2,0.1-2.3,0.2-3.3,0.3
			c0.4-0.9,0.5-2,0.5-3C83.3,62.5,83.2,61.9,83,61.3z"/>
		<path fill="#00AEEF" d="M96,62.8c0-0.2,0-0.3,0-0.5c2.1,0.4,3.4,0.8,3.4,0.8c-1.2,0.4-2.3,0.7-3.4,1C96,63.6,96,63.2,96,62.8z"/>
	</g>
	<g>
		<path fill="#00AEEF" d="M91.8,54.3c-1.2,0.9-2.4,1.7-3.5,2.4c-0.1-0.9-0.3-1.7-0.7-2.6c-0.2-0.4-0.5-0.9-0.8-1.2
			c1.4-0.5,2.7-0.9,3.9-1.2c0.2,0.3,0.4,0.6,0.6,0.9C91.6,53.2,91.7,53.7,91.8,54.3z"/>
		<path fill="#FFFFFF" d="M81.1,55.2c1.1-0.5,2.2-1,3.2-1.4c0.4,0.4,0.7,0.9,1,1.4c0.5,0.9,0.6,2,0.5,3c-1,0.6-2,1.1-2.9,1.5
			c0-1-0.3-2-0.7-3C81.8,56.2,81.5,55.7,81.1,55.2z"/>
		<path fill="#00AEEF" d="M93.6,51.5c-0.1-0.1-0.1-0.3-0.2-0.4c2.1-0.5,3.4-0.6,3.4-0.6c-0.9,0.8-1.8,1.5-2.7,2.2
			C93.9,52.2,93.8,51.9,93.6,51.5z"/>
	</g>
	<g>
		<path fill="#00AEEF" d="M87,45.6c-0.9,1.2-1.7,2.3-2.5,3.4c-0.4-0.8-0.9-1.5-1.5-2.2c-0.3-0.3-0.7-0.7-1.1-0.9
			c1.2-0.9,2.3-1.7,3.3-2.4c0.3,0.2,0.6,0.4,0.8,0.7C86.4,44.6,86.8,45.1,87,45.6z"/>
		<path fill="#FFFFFF" d="M77.2,49.9c0.9-0.8,1.7-1.6,2.6-2.4c0.5,0.3,1,0.6,1.4,1c0.7,0.7,1.2,1.6,1.5,2.6
			c-0.8,0.9-1.5,1.7-2.3,2.4c-0.4-0.9-0.9-1.8-1.7-2.6C78.2,50.6,77.7,50.3,77.2,49.9z"/>
		<path fill="#00AEEF" d="M87.8,42.3c-0.1-0.1-0.2-0.2-0.4-0.3c1.8-1.1,3-1.7,3-1.7c-0.6,1-1.2,2-1.8,3
			C88.4,42.9,88.1,42.6,87.8,42.3z"/>
	</g>
	<g>
		<path fill="#00AEEF" d="M80.7,39.4c-0.5,1.4-1,2.7-1.4,4c-0.6-0.7-1.3-1.2-2.1-1.7c-0.4-0.2-0.9-0.4-1.3-0.6
			c0.9-1.2,1.7-2.3,2.5-3.2c0.3,0.1,0.7,0.2,1,0.4C79.8,38.5,80.3,38.9,80.7,39.4z"/>
		<path fill="#00AEEF" d="M72.5,46.3c0.6-1,1.2-2,1.8-3c0.6,0.1,1.1,0.3,1.6,0.6c0.9,0.5,1.6,1.2,2.2,2.1c-0.5,1.1-1,2.1-1.5,3
			c-0.6-0.8-1.4-1.5-2.3-2C73.7,46.7,73.1,46.5,72.5,46.3z"/>
	</g>
	<g>
		<path fill="#00AEEF" d="M45.7,31.6c0.8-0.6,1.8-1,2.9-1.2c0.3-0.1,0.7-0.1,1-0.1c-0.4-1-0.8-2-1.2-2.9c-0.2,0-0.4,0-0.6,0.1
			c-0.8,0.1-1.5,0.4-2.1,0.9C45.7,29.5,45.7,30.6,45.7,31.6z"/>
		<path fill="#00AEEF" d="M51.6,36.6c-0.4-1.4-0.8-2.7-1.2-3.9c-0.5-0.1-1-0.1-1.5,0c-1.3,0.2-2.3,0.9-3.1,1.8
			c0.1,1.2,0.2,2.3,0.3,3.4c0.9-0.7,2-1.2,3.1-1.4C50,36.4,50.8,36.4,51.6,36.6z"/>
		<path fill="#00AEEF" d="M49.6,38.7c-1.3,0.2-2.3,0.9-3.1,1.8C48.4,52.2,53,56.5,53,56.5c1-6.2,0.4-12.2-0.7-17.5
			C51.4,38.7,50.5,38.6,49.6,38.7z"/>
		<path fill="#00AEEF" d="M47.4,25.3c-0.8-1.7-1.4-2.7-1.4-2.7c-0.1,1.1-0.2,2.2-0.2,3.2C46.3,25.6,46.8,25.4,47.4,25.3z"/>
	</g>
	<g>
		<path fill="#00AEEF" d="M42.7,35.6c-0.5-0.9-0.9-1.8-1.4-2.6c-0.4,0.1-0.7,0.2-1.1,0.3c-0.4,0.2-0.9,0.4-1.2,0.7
			c0.2,1.1,0.3,2.2,0.5,3.2c0.6-0.5,1.3-1,2.1-1.3C42,35.8,42.3,35.7,42.7,35.6z"/>
		<path fill="#00AEEF" d="M42.7,38.3c-1,0.4-1.8,1.1-2.5,2c3.4,14.5,9.1,19.3,9.1,19.3c-0.1-8.2-2.8-15.9-5.5-21.7
			C43.4,38.1,43,38.2,42.7,38.3z"/>
	</g>
	<g>
		<path fill="#FFFFFF" d="M33.6,74.3c0.9-0.5,1.8-1,2.6-1.4c-0.5-0.3-1-0.8-1.4-1.3c-0.2-0.3-0.4-0.6-0.5-0.9
			c-0.8,0.7-1.4,1.4-2,2.1c0.1,0.2,0.2,0.4,0.4,0.6C32.9,73.8,33.3,74.1,33.6,74.3z"/>
		<path fill="#00AEEF" d="M39.7,67.9c0.4,0.6,1,1,1.7,1.3c4.1-3.5,5.1-6.2,5.1-6.2c-2.7,0.9-5.2,2.2-7.4,3.7
			C39.3,67.2,39.5,67.6,39.7,67.9z"/>
		<path fill="#00AEEF" d="M31.2,74.6c-0.1-0.1-0.1-0.2-0.2-0.3c-1,1.2-1.5,1.9-1.5,1.9c0.8-0.3,1.5-0.7,2.3-1
			C31.6,75,31.4,74.8,31.2,74.6z"/>
	</g>
	<g>
		<path fill="#FFFFFF" d="M30.3,71.5c1.2-0.4,2.3-0.7,3.3-1.1c-0.5-0.5-1-1.1-1.3-1.7c-0.2-0.4-0.3-0.7-0.4-1.1
			c-1,0.7-1.9,1.3-2.7,2c0.1,0.3,0.2,0.6,0.3,0.8C29.6,70.7,29.9,71.1,30.3,71.5z"/>
		<path fill="#00AEEF" d="M27.4,71.1c-0.1-0.1-0.1-0.2-0.2-0.4c-1.3,1.1-2.1,1.9-2.1,1.9c1-0.2,1.9-0.4,2.8-0.7
			C27.7,71.7,27.5,71.4,27.4,71.1z"/>
	</g>
	<g>
		<path fill="#00AEEF" d="M21,64.7c1.4,0.3,2.8,0.6,4.1,0.8c-0.3-0.8-0.4-1.7-0.3-2.7c0-0.5,0.1-1,0.2-1.4c-1.5,0.1-2.8,0.3-4.1,0.4
			c-0.1,0.3-0.1,0.7-0.2,1.1C20.8,63.5,20.9,64.1,21,64.7z"/>
		<path fill="#FFFFFF" d="M31.3,61.3c-1.2,0-2.4,0-3.5,0c-0.2,0.5-0.3,1.1-0.4,1.7c0,1,0.2,2,0.7,2.9c1.2,0.1,2.3,0.2,3.3,0.3
			c-0.4-0.9-0.5-2-0.5-3C31,62.5,31.1,61.9,31.3,61.3z"/>
		<path fill="#00AEEF" d="M18.3,62.8c0-0.2,0-0.3,0-0.5c-2.1,0.4-3.4,0.8-3.4,0.8c1.2,0.4,2.3,0.7,3.4,1
			C18.3,63.6,18.2,63.2,18.3,62.8z"/>
	</g>
	<g>
		<path fill="#00AEEF" d="M22.5,54.3c1.2,0.9,2.4,1.7,3.5,2.4c0.1-0.9,0.3-1.7,0.7-2.6c0.2-0.4,0.5-0.9,0.8-1.2
			c-1.4-0.5-2.7-0.9-3.9-1.2c-0.2,0.3-0.4,0.6-0.6,0.9C22.7,53.2,22.5,53.7,22.5,54.3z"/>
		<path fill="#FFFFFF" d="M33.2,55.2c-1.1-0.5-2.2-1-3.2-1.4c-0.4,0.4-0.7,0.9-1,1.4c-0.5,0.9-0.6,2-0.5,3c1,0.6,2,1.1,2.9,1.5
			c0-1,0.3-2,0.7-3C32.4,56.2,32.8,55.7,33.2,55.2z"/>
		<path fill="#00AEEF" d="M20.7,51.5c0.1-0.1,0.1-0.3,0.2-0.4c-2.1-0.5-3.4-0.6-3.4-0.6c0.9,0.8,1.8,1.5,2.7,2.2
			C20.3,52.2,20.5,51.9,20.7,51.5z"/>
	</g>
	<g>
		<path fill="#00AEEF" d="M27.2,45.6c0.9,1.2,1.7,2.3,2.5,3.4c0.4-0.8,0.9-1.5,1.5-2.2c0.3-0.3,0.7-0.7,1.1-0.9
			c-1.2-0.9-2.3-1.7-3.3-2.4c-0.3,0.2-0.6,0.4-0.8,0.7C27.8,44.6,27.5,45.1,27.2,45.6z"/>
		<path fill="#FFFFFF" d="M37.1,49.9c-0.9-0.8-1.7-1.6-2.6-2.4c-0.5,0.3-1,0.6-1.4,1c-0.7,0.7-1.2,1.6-1.5,2.6
			c0.8,0.9,1.5,1.7,2.3,2.4c0.4-0.9,0.9-1.8,1.7-2.6C36,50.6,36.5,50.3,37.1,49.9z"/>
		<path fill="#00AEEF" d="M26.4,42.3c0.1-0.1,0.2-0.2,0.4-0.3c-1.8-1.1-3-1.7-3-1.7c0.6,1,1.2,2,1.8,3
			C25.9,42.9,26.1,42.6,26.4,42.3z"/>
	</g>
	<g>
		<path fill="#00AEEF" d="M33.6,39.4c0.5,1.4,1,2.7,1.4,4c0.6-0.7,1.3-1.2,2.1-1.7c0.4-0.2,0.9-0.4,1.3-0.6
			c-0.9-1.2-1.7-2.3-2.5-3.2c-0.3,0.1-0.7,0.2-1,0.4C34.5,38.5,34,38.9,33.6,39.4z"/>
		<path fill="#00AEEF" d="M41.8,46.3c-0.6-1-1.2-2-1.8-3c-0.6,0.1-1.1,0.3-1.6,0.6c-0.9,0.5-1.6,1.2-2.2,2.1c0.5,1.1,1,2.1,1.5,3
			c0.6-0.8,1.4-1.5,2.3-2C40.6,46.7,41.2,46.5,41.8,46.3z"/>
	</g>
</g>
<polygon fill="#060608" points="73.5,121.9 73.5,98.9 62.5,98.7 62.5,98.7 57.4,98.7 52.2,98.7 52.2,98.7 41.2,98.9 41.2,121.9 
	26.5,134.3 88.2,134.3 "/>
<path fill="#060608" d="M29.6,31.6c0,0,27.4-11.1,54,0l-0.7,3.2c0,0-22.3-7.8-36-3S32,35.5,31.8,35.6"/>
<path fill="#060608" d="M76,70.1c0,0,4.9-0.6,7.5,12c-0.3-0.4,0.8,3.4,0.8,3.4l10.2,24.3c0,0-12.2,8.4-28,6.4c0,0-0.2-45.7,0-45.5
	c0.2,0.2,9.9-0.7,9.9-0.7"/>
<path fill="#060608" d="M36.1,70.1c0,0-4,0.9-6.3,13.5c0.3-0.4-0.8,3.7-0.8,3.7l-9.6,22.6c0,0,11,8.4,25.3,6.4c0,0,0.2-45.7,0-45.5
	c-0.2,0.2-8.9-0.7-8.9-0.7"/>
<path fill-rule="evenodd" clip-rule="evenodd" fill="#060608" d="M53.1,113.5c1.7,1,3.1,1.2,5.1,1.1c3.8-0.1,7.7-3.1,9.8-5
	c6.7-6.6,11.2-18.3,11.2-18.3c2.1-2.7,2.7-8.7,1.3-10.6c0.8-3.7,0.8-8.1,0-11.8c-2.9-9.9-14.7-16.1-14.7-16.1
	c-1.4-0.5-3.3-1-4.9-1.1c-1,0-2.3,0.6-2.7,1.5c-0.4-0.9-1.7-1.5-2.7-1.5c-9.1,0.4-16.8,9.2-18.9,15C35,71.1,35,76,35.9,80.6
	c-1.5,1.9-0.8,7.9,1.3,10.6c0,0,0,0,0,0c0.7,0.7,2.6,2.7,3,3.4c0.4,0.9,2.6,11.7,12.7,18.6C52.9,113.3,53,113.4,53.1,113.5z"/>
<path fill-rule="evenodd" clip-rule="evenodd" fill="#D7893F" d="M58.4,69.6c0.9,6.7,11.7,7.3,14.1,12.5c2.2,4.7,0.4,10.1-1.3,14.7
	c0.5-0.3,1-0.7,1.5-1.3c-0.5,2.1-0.6,4.4-1.8,6.2c-2.2,3.4-5.9,7.2-8.3,9.4c-1.3,1.1-2.3,1.1-4.2,1.1c-1.9,0-2.9,0-4.2-1.1
	c-2.5-2.1-6.1-5.9-8.3-9.4c-1.2-1.8-1.3-4.2-1.8-6.2c0.5,0.6,1,1,1.5,1.3c-1.7-4.6-3.5-10-1.3-14.7C46.7,76.9,57.5,76.3,58.4,69.6"
	/>
<path fill-rule="evenodd" clip-rule="evenodd" fill="#060608" d="M58.3,98.2c1.3,0,2.8-1.4,4.1-1.5c0-1.2-0.6-2.1-1.4-2.7
	c1,0,2.4,1.4,2.7,2.6c0.4,1.3-1,1.1-1.7,1.3c-1.6,0.4-2.1,1.5-3.7,1.5c-1.6,0-2.1-1.1-3.7-1.5c-0.7-0.2-2.1,0.1-1.7-1.3
	c0.3-1.2,1.7-2.6,2.7-2.6c-0.8,0.7-1.4,1.5-1.4,2.7C55.6,96.8,57.1,98.2,58.3,98.2"/>
<path fill-rule="evenodd" clip-rule="evenodd" fill="#060608" d="M58.3,101.6c1.9-1.1,2.5-0.3,6.7,0.9c-0.1-0.6-0.3-1.4-0.5-2.3
	c1.9,2.2,2.1,3.8,1,3.8c-0.9-0.4-3-1-4.4-1.2c-0.3,0-1.6,0.3-2.7,0.3c-1,0-2.4-0.3-2.7-0.3c-1.4,0.2-3.5,0.8-4.4,1.2
	c-1.1,0-0.9-1.6,1-3.8c-0.3,0.9-0.5,1.7-0.5,2.3C55.9,101.4,56.4,100.5,58.3,101.6"/>
<path fill-rule="evenodd" clip-rule="evenodd" fill="#060608" d="M58.3,105.4c1.5,0,3-0.3,4.6-0.4c-1.5,1.8-2.7,2.9-4.6,2.9
	c-1.8,0-3.1-1.1-4.6-2.9C55.3,105.1,56.8,105.4,58.3,105.4"/>
<path fill-rule="evenodd" clip-rule="evenodd" fill="#FFFFFF" d="M47.4,86.7l1.3,0.9c0,0,2.3,0.6,4.1-0.2c-1-1.5-2-2-2-2
	s-0.3-0.2-0.4,0c-0.2,0.1-0.6,0.2-0.8,0.2C49.3,85.7,47.4,86.7,47.4,86.7z"/>
<path fill-rule="evenodd" clip-rule="evenodd" fill="#060608" d="M55.6,83.5c0.8,1.5,0,2.2-0.5,1.8c-2.6-1-4.9-3.8-7.8-2.9
	c-2.1,0.7-3.1,3.2-1.6,3.8c-0.3-1.1,0.3-1.6,0.8-1.8c1.1-0.4,1.6,0,2.5,0.5c-1,0.4-2.1,0.8-2.6,2.1c0.5,0.6,1.3,0.8,2.3,0.7
	c-0.3-0.3-0.5-0.7-0.7-1c0.3-0.2,0.6-0.3,0.9-0.3c0.4,1.5,1.9,1.5,3.6,0.8c-0.5,1.5-2.6,2.4-4.9,1.9c0.9,1.9,4.5,1.5,6.7-1
	c0.7,0.5,1.1,1.3,1.3,2.3c0.4-0.7,0.5-2.2,0.4-4C57.2,85.4,56.6,83.7,55.6,83.5"/>
<path fill-rule="evenodd" clip-rule="evenodd" fill="#FFFFFF" d="M69.4,86.7l-1.3,0.9c0,0-2.3,0.6-4.1-0.2c1-1.5,2-2,2-2
	s0.3-0.2,0.4,0c0.2,0.1,0.6,0.2,0.8,0.2C67.5,85.7,69.4,86.7,69.4,86.7z"/>
<path fill-rule="evenodd" clip-rule="evenodd" fill="#060608" d="M61.2,83.5c-0.8,1.5,0,2.2,0.5,1.8c2.6-1,4.9-3.8,7.8-2.9
	c2.1,0.7,3.1,3.2,1.6,3.8c0.3-1.1-0.3-1.6-0.8-1.8c-1.1-0.4-1.6,0-2.5,0.5c1,0.4,2.1,0.8,2.6,2.1c-0.5,0.6-1.3,0.8-2.3,0.7
	c0.3-0.3,0.5-0.7,0.7-1c-0.3-0.2-0.6-0.3-0.9-0.3c-0.4,1.5-1.9,1.5-3.6,0.8c0.5,1.5,2.6,2.4,4.9,1.9c-0.9,1.9-4.5,1.5-6.7-1
	c-0.7,0.5-1.1,1.3-1.3,2.3c-0.4-0.7-0.5-2.2-0.4-4C59.6,85.4,60.2,83.7,61.2,83.5"/>
<g>
	<path fill-rule="evenodd" clip-rule="evenodd" fill="#F99E49" d="M54.9,96c1.7,0.6,2.3,1.4,3.5,1.5c1.1,0,1.8-0.9,3.5-1.5
		c-0.2-0.8-1-1.5-1-1.5l-1,0.7L60,94l-0.4-6.7l-1.3-0.6l-1.3,0.6L56.7,94l0.2,1.2l-1-0.7C55.9,94.5,55.1,95.2,54.9,96z"/>
	<path fill-rule="evenodd" clip-rule="evenodd" fill="#F99E49" d="M53.3,82.6c-0.7-1.8-1.7-3-1.7-3s4.9,0.8,6.8,3.7
		c1.9-2.9,6.8-3.7,6.8-3.7s-1,1.1-1.7,3c2.3-1.9,6.4-1.3,6.3-1.5c-1.9-2.6-4-2.4-7.2-4.4c-3.1-2-4.2-3.5-4.2-3.5s-1.1,1.5-4.2,3.5
		c-3.1,2-5.3,1.8-7.2,4.4C46.9,81.3,51,80.7,53.3,82.6z"/>
	<path fill-rule="evenodd" clip-rule="evenodd" fill="#F99E49" d="M48.8,97c0,0,4-2.8,4.8-6.4c-5.4,2.3-8.3-1.9-8.3-1.9
		C44.1,93.3,48.8,97,48.8,97z"/>
	<path fill-rule="evenodd" clip-rule="evenodd" fill="#F99E49" d="M47.8,102.1c0,0,0.4,1.7,2.2,2.9c-1.5-2.1,1.4-7.3,1.4-7.3
		C48.9,100,47.8,102.1,47.8,102.1z"/>
	<path fill-rule="evenodd" clip-rule="evenodd" fill="#F99E49" d="M57.1,100.7v-1l-3-1.2c0,0-1.2,1.9-1.5,3.1
		c1.8-0.9,3.6-1.1,3.6-1.1L57.1,100.7z"/>
	<path fill-rule="evenodd" clip-rule="evenodd" fill="#F99E49" d="M63,90.7c0.8,3.6,4.8,6.4,4.8,6.4s4.8-3.7,3.4-8.2
		C71.2,88.8,68.4,93,63,90.7z"/>
	<path fill-rule="evenodd" clip-rule="evenodd" fill="#F99E49" d="M65.3,97.7c0,0,2.9,5.2,1.4,7.3c1.8-1.2,2.2-2.9,2.2-2.9
		S67.8,100,65.3,97.7z"/>
	<path fill-rule="evenodd" clip-rule="evenodd" fill="#F99E49" d="M58.3,108.8c0,0-2.3,0.2-3.5-0.7c0,2.3,0.9,3,0.9,3
		s1.2,0.5,2.6,0.5v0c1.4,0,2.6-0.5,2.6-0.5s0.9-0.8,0.9-3C60.7,109.1,58.3,108.8,58.3,108.8z"/>
	<path fill-rule="evenodd" clip-rule="evenodd" fill="#F99E49" d="M59.6,99.7v1l1-0.2c0,0,1.8,0.2,3.6,1.1c-0.3-1.2-1.5-3.1-1.5-3.1
		L59.6,99.7z"/>
</g>
<path fill-rule="evenodd" clip-rule="evenodd" fill="#D7893F" d="M44.8,81.3c0.2,0,27.2,0,27.2,0s-2.8-6.5-4.1-7s-6.9-2.3-9.1-2.3
	s-7.8,1.1-8.6,1.1"/>
<path fill-rule="evenodd" clip-rule="evenodd" fill="#060608" d="M41.4,79.8c0.5,0,15.6,0,15.6,0l1.7-3.1l1.8,3.2h1.5l0.7-1.5
	l0.8,1.7h12c0,0,1.7-13.9-4.1-16.4c-5.9-2.5-10.7-5.1-14.8-3.5c-4.1,1.5-9.5,3.3-11.3,4.6"/>
<path fill-rule="evenodd" clip-rule="evenodd" fill="#060608" d="M46.4,87c0,0,1.5,2.6,6.4,0.5c0,0,0.3-1.6,0.2-1.7s-3-0.6-3.1-0.5
	C49.8,85.4,46.4,87,46.4,87z"/>
<path fill-rule="evenodd" clip-rule="evenodd" fill="#060608" d="M70.4,87c0,0-1.1,1.9-6.3,1c-5.1-0.9,0-1.7,0-1.7s4.4-0.6,4.4-0.6
	C68.7,85.7,70.4,87,70.4,87z"/>
<path fill-rule="evenodd" clip-rule="evenodd" fill="#060608" d="M58.6,83.4v14c0,0,0.6-0.1,1.3-0.5c0.7-0.4,1.8-0.9,1.8-0.9
	s-0.3-1.1-1-1.5l-0.9,0.7L60,94v-6.5l1.4-1.4L58.6,83.4z"/>
<path fill-rule="evenodd" clip-rule="evenodd" fill="#060608" d="M61.5,88c0,0.2,0,5.9,0,5.9l1.5-3.2c0,0,1.3,4.7,4.8,6.4
	c0,0,3.9-0.4,6.4-7.4c0,0-1.1,11.2-4.6,14.5c0,0-2.5-4.7-4.6-6.7c-2.1-2-2.7-2.6-2.7-2.6s0,1.1-1,1.2c-1,0.1-1.8,0.4-1.9-0.1
	c-0.1-0.4,0-9.9,0.1-10.2c0.1-0.4,1.9,0.7,1.9,0.7l1.1,1"/>
<path fill="#060608" d="M58.6,83.4v14c0,0,1.8-0.1,3.8-1.8l0.5-4.9c0,0-1.3-3,0.8-4.1c2.1-1.1-3.6,0.7-3.7,0.7"/>
<path fill="#060608" d="M62.8,88.1c0,0,1.1,7,5.1,8.8c0,0,2.8-1.1,6.7-6.3c3.9-5.2-0.4,5.8-0.4,5.8s-2.6,2.8-3.5,3.2
	c-0.9,0.4-1.9,0.3-2.1,0.2c-0.2-0.1-6.1-5.6-6.3-5.9s-2.3-2.7-2.3-3c0-0.4,0.2-2.2,0.2-2.2l0.4-1.3l0.7-0.7"/>
<path fill="#060608" d="M73.5,87.4c0,0-0.5,6.6-5.6,9.5s3.6,1.6,3.7,1.5c0.1-0.1,5.8-7.8,6-8.8c0.2-1,1-3.1,0.5-3.6
	c-0.5-0.5-1.9-0.9-1.9-0.9"/>
<path fill="#060608" d="M63.3,95.7l1.2,4.5l1.6,2.8l-3.5,2.1c0,0,0.9,6.4-2.6,7.8c-3.5,1.4,3.7-0.5,4.1-0.9c0.3-0.4,7.4-6.6,7.6-7.7
	s0.7-4.1,0.7-4.1l-2-0.8"/>
<path fill="#060608" d="M71.6,79.5L70.3,83l1.1,1.9c0,0,0,1.5-2.6,1.7c0,0,2.3,0.1,2.4,2.8c0.1,2.7-0.5,5-3.4,7.5
	c-2.9,2.5-1.4,3.7-0.6,3.7c0.8,0,6.5-6.1,6.5-6.1s1.7-0.2,2.5-5.4c0.8-5.2,2-7.7,0.9-9.2s-0.2-0.7-1.4-2c-1.1-1.2-1.5-1.1-1.5-1.1"
	/>
<polyline fill="#060608" points="70.5,83.3 65.3,78.1 74.6,77.9 "/>
<path fill-rule="evenodd" clip-rule="evenodd" fill="#F99E49" d="M48.7,113.4c0,0,6.7,5.3,17,1.5l-6.2,9.8l-4-1.3l2.7,3.2l-1,2.5
	H41.6l6.2-2.7v-10l5.7,3.8C53.5,120.2,49.8,116.1,48.7,113.4z"/>
<g>
	<polygon fill-rule="evenodd" clip-rule="evenodd" fill="#00AEEF" points="41.4,101.1 43.1,109.5 40.2,111.7 40.2,100.7 	"/>
	<polygon fill-rule="evenodd" clip-rule="evenodd" fill="#00AEEF" points="38.3,101.1 36.6,109.5 39.5,111.7 39.5,100.7 	"/>
	<path fill-rule="evenodd" clip-rule="evenodd" fill="#FFFFFF" d="M39.7,99.8c1,0,1.8,0.6,2.2,1.4c0.2-0.3,0.2-0.7,0.2-1.1
		c0-1.3-1.1-2.4-2.4-2.4s-2.4,1.1-2.4,2.4c0,0.4,0.1,0.7,0.2,1.1C37.9,100.4,38.7,99.8,39.7,99.8z"/>
	<g>
		<polygon fill-rule="evenodd" clip-rule="evenodd" fill="#00AEEF" points="77,101.1 78.7,109.5 75.8,111.7 75.8,100.7 		"/>
		<polygon fill-rule="evenodd" clip-rule="evenodd" fill="#00AEEF" points="73.9,101.1 72.2,109.5 75.1,111.7 75.1,100.7 		"/>
		<path fill-rule="evenodd" clip-rule="evenodd" fill="#FFFFFF" d="M75.3,99.8c1,0,1.8,0.6,2.2,1.4c0.2-0.3,0.2-0.7,0.2-1.1
			c0-1.3-1.1-2.4-2.4-2.4s-2.4,1.1-2.4,2.4c0,0.4,0.1,0.7,0.2,1.1C73.5,100.4,74.3,99.8,75.3,99.8z"/>
	</g>
</g>
<path fill="#060707" d="M33.2,35.4c0,0,8.3-4.2,21.4-4.3s25.6,3.9,25.6,3.9s1.4,1.4,1.2,1.3C81.2,36,69.7,64,69.7,64
	S54,62.8,49.8,63.4s-5.6,1.1-5.6,0.8C44.1,64,33.2,35.4,33.2,35.4z"/>
<path fill="none" stroke="#E20D8D" stroke-miterlimit="10" d="M70.8,84.4"/>
<path fill="#00AEEF" d="M75.6,67.6c-2.9-5.1-15.1-5.2-18.1-5.2c0,0,0,0,0,0s-0.1,0-0.3,0c-0.2,0-0.3,0-0.3,0s0,0,0,0
	c-3,0.1-14.4-0.1-18.5,5.3c0,0,3.3-3.9,18.8-3.9C72.7,63.9,75.6,67.6,75.6,67.6z"/>
<path fill="#00AEEF" d="M78.3,76.9c-3.3-4-17.2-4.1-20.6-4.1c0,0,0,0,0,0s-0.1,0-0.3,0c-0.2,0-0.3,0-0.3,0s0,0,0,0
	c-3.5,0-16.4-0.1-21,4.2c0,0,3.7-3.1,21.3-3.1C74.9,73.9,78.3,76.9,78.3,76.9z"/>
<path fill="#00AEEF" d="M46.3,64.1l-12.1-28c14.5-5.9,31-5.9,45.5,0L67.5,64.3h2.6l12.7-29.4l-1.1-0.5c-15.8-6.8-33.9-6.8-49.6,0
	L31,34.8l12.7,29.3H46.3z"/>
<g>
	<g>
		
			<rect x="55.7" y="55.8" transform="matrix(-1 -1.224647e-16 1.224647e-16 -1 114.6025 112.3791)" fill="#00AEEF" width="3.2" height="0.9"/>
		
			<rect x="56.9" y="54.6" transform="matrix(6.123234e-17 -1 1 6.123234e-17 3.4126 113.4908)" fill="#00AEEF" width="3.2" height="0.9"/>
	</g>
	<g>
		
			<rect x="54.6" y="57.1" transform="matrix(6.123234e-17 -1 1 6.123234e-17 -1.3643 113.6659)" fill="#00AEEF" width="3.2" height="0.9"/>
		<rect x="55.7" y="58.2" fill="#00AEEF" width="3.2" height="0.9"/>
	</g>
	<g>
		
			<rect x="55.7" y="51" transform="matrix(-1 -1.224647e-16 1.224647e-16 -1 114.6025 102.7846)" fill="#00AEEF" width="3.2" height="0.9"/>
		
			<rect x="56.9" y="49.8" transform="matrix(6.123234e-17 -1 1 6.123234e-17 8.2099 108.6936)" fill="#00AEEF" width="3.2" height="0.9"/>
	</g>
	<g>
		
			<rect x="54.6" y="52.3" transform="matrix(6.123234e-17 -1 1 6.123234e-17 3.4329 108.8686)" fill="#00AEEF" width="3.2" height="0.9"/>
		<rect x="55.7" y="53.4" fill="#00AEEF" width="3.2" height="0.9"/>
	</g>
	<g>
		
			<rect x="55.7" y="46.2" transform="matrix(-1 -1.224647e-16 1.224647e-16 -1 114.6025 93.2532)" fill="#00AEEF" width="3.2" height="0.9"/>
		
			<rect x="56.9" y="45" transform="matrix(6.123234e-17 -1 1 6.123234e-17 12.9756 103.9278)" fill="#00AEEF" width="3.2" height="0.9"/>
	</g>
	<g>
		
			<rect x="54.6" y="47.5" transform="matrix(6.123234e-17 -1 1 6.123234e-17 8.1987 104.1029)" fill="#00AEEF" width="3.2" height="0.9"/>
		<rect x="55.7" y="48.7" fill="#00AEEF" width="3.2" height="0.9"/>
	</g>
	<g>
		
			<rect x="55.7" y="41.4" transform="matrix(-1 -1.224647e-16 1.224647e-16 -1 114.6025 83.6586)" fill="#00AEEF" width="3.2" height="0.9"/>
		
			<rect x="56.9" y="40.2" transform="matrix(6.123234e-17 -1 1 6.123234e-17 17.7729 99.1306)" fill="#00AEEF" width="3.2" height="0.9"/>
	</g>
	<g>
		
			<rect x="54.6" y="42.7" transform="matrix(6.123234e-17 -1 1 6.123234e-17 12.9959 99.3056)" fill="#00AEEF" width="3.2" height="0.9"/>
		<rect x="55.7" y="43.9" fill="#00AEEF" width="3.2" height="0.9"/>
	</g>
</g>
<g>
	<g>
		
			<rect x="63.8" y="57" transform="matrix(0.9277 0.3734 -0.3734 0.9277 26.1925 -20.2566)" fill="#00AEEF" width="3.2" height="0.9"/>
		
			<rect x="63.2" y="55.5" transform="matrix(0.3734 -0.9277 0.9277 0.3734 -11.3637 95.1329)" fill="#00AEEF" width="3.2" height="0.9"/>
	</g>
	<g>
		
			<rect x="64.4" y="58.7" transform="matrix(0.3734 -0.9277 0.9277 0.3734 -13.5335 98.2328)" fill="#00AEEF" width="3.2" height="0.9"/>
		
			<rect x="62.9" y="59.3" transform="matrix(-0.9277 -0.3734 0.3734 -0.9277 101.9261 139.29)" fill="#00AEEF" width="3.2" height="0.9"/>
	</g>
	<g>
		
			<rect x="65.6" y="52.6" transform="matrix(0.9277 0.3734 -0.3734 0.9277 24.6603 -21.2475)" fill="#00AEEF" width="3.2" height="0.9"/>
		
			<rect x="64.9" y="51.1" transform="matrix(0.3734 -0.9277 0.9277 0.3734 -6.113 94.0064)" fill="#00AEEF" width="3.2" height="0.9"/>
	</g>
	<g>
		
			<rect x="66.2" y="54.3" transform="matrix(0.3734 -0.9277 0.9277 0.3734 -8.2827 97.1063)" fill="#00AEEF" width="3.2" height="0.9"/>
		
			<rect x="64.7" y="54.9" transform="matrix(-0.9277 -0.3734 0.3734 -0.9277 107.0412 131.3804)" fill="#00AEEF" width="3.2" height="0.9"/>
	</g>
	<g>
		
			<rect x="67.4" y="48.2" transform="matrix(0.9277 0.3734 -0.3734 0.9277 23.1381 -22.2319)" fill="#00AEEF" width="3.2" height="0.9"/>
		
			<rect x="66.7" y="46.7" transform="matrix(0.3734 -0.9277 0.9277 0.3734 -0.8968 92.8872)" fill="#00AEEF" width="3.2" height="0.9"/>
	</g>
	<g>
		
			<rect x="67.9" y="49.8" transform="matrix(0.3734 -0.9277 0.9277 0.3734 -3.0665 95.9871)" fill="#00AEEF" width="3.2" height="0.9"/>
		
			<rect x="66.4" y="50.5" transform="matrix(-0.9277 -0.3734 0.3734 -0.9277 112.1227 123.5229)" fill="#00AEEF" width="3.2" height="0.9"/>
	</g>
	<g>
		
			<rect x="69.2" y="43.7" transform="matrix(0.9277 0.3734 -0.3734 0.9277 21.6059 -23.2228)" fill="#00AEEF" width="3.2" height="0.9"/>
		
			<rect x="68.5" y="42.2" transform="matrix(0.3734 -0.9277 0.9277 0.3734 4.354 91.7607)" fill="#00AEEF" width="3.2" height="0.9"/>
	</g>
	<g>
		
			<rect x="69.7" y="45.4" transform="matrix(0.3734 -0.9277 0.9277 0.3734 2.1843 94.8606)" fill="#00AEEF" width="3.2" height="0.9"/>
		
			<rect x="68.2" y="46" transform="matrix(-0.9277 -0.3734 0.3734 -0.9277 117.2378 115.6134)" fill="#00AEEF" width="3.2" height="0.9"/>
	</g>
</g>
<g>
	<g>
		
			<rect x="47.6" y="57" transform="matrix(-0.9277 0.3734 -0.3734 -0.9277 116.3484 92.4119)" fill="#00AEEF" width="3.2" height="0.9"/>
		
			<rect x="48.3" y="55.5" transform="matrix(-0.3734 -0.9277 0.9277 -0.3734 16.5511 123.1364)" fill="#00AEEF" width="3.2" height="0.9"/>
	</g>
	<g>
		
			<rect x="47.1" y="58.7" transform="matrix(-0.3734 -0.9277 0.9277 -0.3734 11.9616 126.3488)" fill="#00AEEF" width="3.2" height="0.9"/>
		
			<rect x="48.6" y="59.3" transform="matrix(0.9277 -0.3734 0.3734 0.9277 -18.6929 23.0506)" fill="#00AEEF" width="3.2" height="0.9"/>
	</g>
	<g>
		
			<rect x="45.8" y="52.6" transform="matrix(-0.9277 0.3734 -0.3734 -0.9277 111.2333 84.5023)" fill="#00AEEF" width="3.2" height="0.9"/>
		
			<rect x="46.5" y="51.1" transform="matrix(-0.3734 -0.9277 0.9277 -0.3734 18.219 115.3625)" fill="#00AEEF" width="3.2" height="0.9"/>
	</g>
	<g>
		
			<rect x="45.3" y="54.3" transform="matrix(-0.3734 -0.9277 0.9277 -0.3734 13.6295 118.5749)" fill="#00AEEF" width="3.2" height="0.9"/>
		
			<rect x="46.8" y="54.9" transform="matrix(0.9277 -0.3734 0.3734 0.9277 -17.1607 22.0597)" fill="#00AEEF" width="3.2" height="0.9"/>
	</g>
	<g>
		
			<rect x="44.1" y="48.2" transform="matrix(-0.9277 0.3734 -0.3734 -0.9277 106.1518 76.6448)" fill="#00AEEF" width="3.2" height="0.9"/>
		
			<rect x="44.7" y="46.7" transform="matrix(-0.3734 -0.9277 0.9277 -0.3734 19.8759 107.6397)" fill="#00AEEF" width="3.2" height="0.9"/>
	</g>
	<g>
		
			<rect x="43.5" y="49.8" transform="matrix(-0.3734 -0.9277 0.9277 -0.3734 15.2864 110.8521)" fill="#00AEEF" width="3.2" height="0.9"/>
		
			<rect x="45" y="50.5" transform="matrix(0.9277 -0.3734 0.3734 0.9277 -15.6385 21.0753)" fill="#00AEEF" width="3.2" height="0.9"/>
	</g>
	<g>
		
			<rect x="42.3" y="43.7" transform="matrix(-0.9277 0.3734 -0.3734 -0.9277 101.0367 68.7352)" fill="#00AEEF" width="3.2" height="0.9"/>
		
			<rect x="42.9" y="42.2" transform="matrix(-0.3734 -0.9277 0.9277 -0.3734 21.5438 99.8658)" fill="#00AEEF" width="3.2" height="0.9"/>
	</g>
	<g>
		
			<rect x="41.7" y="45.4" transform="matrix(-0.3734 -0.9277 0.9277 -0.3734 16.9543 103.0782)" fill="#00AEEF" width="3.2" height="0.9"/>
		
			<rect x="43.2" y="46" transform="matrix(0.9277 -0.3734 0.3734 0.9277 -14.1063 20.0844)" fill="#00AEEF" width="3.2" height="0.9"/>
	</g>
</g>
<g>
	<path fill="#00AEEF" d="M40.8,36.2l0.9,2.7l-1.5,0.5l-0.9-2.7L40.8,36.2z"/>
	<path fill="#00AEEF" d="M44.5,35.3l0.6,2.8l-1.5,0.3L43,35.6L44.5,35.3z"/>
	<path fill="#00AEEF" d="M48.3,34.6l0.4,2.8l-1.5,0.2l-0.4-2.8L48.3,34.6z"/>
	<path fill="#00AEEF" d="M52.1,34.2l0.2,2.8l-1.5,0.1l-0.2-2.8L52.1,34.2z"/>
	<path fill="#00AEEF" d="M55.9,34l0.1,2.8l-1.5,0l-0.1-2.8L55.9,34z"/>
	<path fill="#00AEEF" d="M59.7,34.1l-0.1,2.8L58,36.8l0.1-2.8L59.7,34.1z"/>
	<path fill="#00AEEF" d="M63.5,34.4l-0.3,2.8L61.6,37l0.3-2.8L63.5,34.4z"/>
	<path fill="#00AEEF" d="M67.2,34.9l-0.5,2.8l-1.5-0.3l0.5-2.8L67.2,34.9z"/>
	<path fill="#00AEEF" d="M71,35.8l-0.7,2.7l-1.5-0.4l0.7-2.7L71,35.8z"/>
	<path fill="#00AEEF" d="M74.6,36.9l-0.9,2.7l-1.5-0.5l0.9-2.7L74.6,36.9z"/>
</g>
<g>
	<path fill="#00AEEF" d="M45.3,71.3c-1.7,0.3-3.4,0.7-5.1,1.1c0.4-1.8,0.9-3.5,1.5-5.3C43,68.4,44.2,69.8,45.3,71.3z M41.6,71
		c0.6-0.1,1.3-0.3,1.9-0.4c-0.4-0.5-0.9-1-1.3-1.6C42,69.7,41.8,70.4,41.6,71z"/>
	<path fill="#00AEEF" d="M48.8,70.7c-1.7,0.2-3.4,0.5-5.1,0.8c0.5-1.7,1.1-3.5,1.8-5.2C46.7,67.8,47.8,69.2,48.8,70.7z M45.2,70.3
		c0.6-0.1,1.3-0.2,1.9-0.3c-0.4-0.5-0.8-1.1-1.2-1.6C45.6,69,45.4,69.7,45.2,70.3z"/>
	<path fill="#00AEEF" d="M52.4,70.4c-1.7,0.1-3.4,0.3-5.1,0.5c0.6-1.7,1.3-3.4,2-5.1C50.4,67.3,51.4,68.9,52.4,70.4z M48.7,69.8
		c0.6-0.1,1.3-0.1,1.9-0.2c-0.4-0.6-0.8-1.1-1.2-1.7C49.2,68.5,49,69.1,48.7,69.8z"/>
	<path fill="#00AEEF" d="M55.9,70.3c-1.7,0-3.4,0.1-5.1,0.3c0.7-1.7,1.5-3.3,2.3-5C54.1,67.1,55,68.7,55.9,70.3z M52.3,69.4
		c0.6,0,1.3-0.1,1.9-0.1c-0.3-0.6-0.7-1.2-1.1-1.7C52.9,68.2,52.6,68.8,52.3,69.4z"/>
	<path fill="#00AEEF" d="M59.4,70.3c-1.7-0.1-3.4-0.1-5.1,0c0.8-1.6,1.7-3.3,2.6-4.9C57.8,67,58.7,68.7,59.4,70.3z M55.9,69.3
		c0.6,0,1.3,0,1.9,0c-0.3-0.6-0.6-1.2-1-1.8C56.5,68.1,56.2,68.7,55.9,69.3z"/>
	<path fill="#00AEEF" d="M63,70.5c-1.7-0.2-3.4-0.2-5.1-0.3c0.9-1.6,1.8-3.2,2.8-4.7C61.5,67.2,62.3,68.8,63,70.5z M59.5,69.3
		c0.6,0,1.3,0.1,1.9,0.1c-0.3-0.6-0.6-1.2-0.9-1.8C60.2,68.2,59.8,68.7,59.5,69.3z"/>
	<path fill="#00AEEF" d="M66.5,70.9c-1.7-0.2-3.4-0.4-5.1-0.5c1-1.5,2-3.1,3.1-4.6C65.2,67.5,65.9,69.2,66.5,70.9z M63.1,69.6
		c0.6,0.1,1.3,0.1,1.9,0.2c-0.2-0.6-0.5-1.3-0.8-1.9C63.9,68.4,63.5,69,63.1,69.6z"/>
	<path fill="#00AEEF" d="M70,71.6c-1.7-0.3-3.4-0.6-5.1-0.8c1-1.5,2.2-3,3.3-4.4C68.9,68.1,69.5,69.8,70,71.6z M66.7,70
		c0.6,0.1,1.3,0.2,1.9,0.3c-0.2-0.6-0.4-1.3-0.7-1.9C67.5,68.9,67.1,69.4,66.7,70z"/>
	<path fill="#00AEEF" d="M73.5,72.3c-1.7-0.4-3.4-0.8-5.1-1.1c1.1-1.4,2.3-2.8,3.6-4.2C72.6,68.8,73.1,70.6,73.5,72.3z M70.2,70.6
		c0.6,0.1,1.3,0.3,1.9,0.4c-0.2-0.7-0.4-1.3-0.6-2C71.1,69.6,70.7,70.1,70.2,70.6z"/>
</g>
<path fill-rule="evenodd" clip-rule="evenodd" fill="#D7893F" d="M50.6,128.4v-10l5.7,3.8c0,0-3.7-4.1-4.7-6.9c0,0,4.6,3.7,12.2,2.7
	l2-3.2c-10.3,3.9-17-1.5-17-1.5c1.1,2.7,4.7,6.9,4.7,6.9l-5.7-3.8v10l-6.2,2.7H49L50.6,128.4z"/>
<path fill="#060608" d="M29.6,71.8c-0.9,1.2,0.1,4.9,0.1,4.9s1.3,1.8,2.8,1.6c1.5-0.3,2.8,0.1,2.8-0.5c0-0.7,2.4-6.3,1.5-6.3"/>
<g>
	<polygon fill="#FFFFFF" points="61.7,59.7 67.7,39.8 61,44.5 61,57.3 62.3,47 63.7,47.5 	"/>
	<polygon fill="#060608" points="64.1,46.3 62.6,45.9 65.4,43.1 	"/>
</g>
<g>
	<polygon fill="#FFFFFF" points="53.2,59.7 47.3,39.8 54,44.5 54,57.3 52.7,47 51.2,47.5 	"/>
	<polygon fill="#060608" points="50.9,46.3 52.4,45.9 49.6,43.1 	"/>
</g>
<path fill="#060608" d="M34,68.3c-1,0.9-1.2,5.1-1.2,5.1s2,1.5,2.5,0.7s1-1.3,1.3-2.2c0.3-0.9,0.4-2.1,0-2.2"/>
<path fill="#060608" d="M85.7,36.3L75.5,56.8c0,0,7.5,4.5,9.4,11.4c-0.4,0.1,0.5,2.3,0.4,2.7c-0.1,0.4-1.2,2.1-2,2.1s-1.8,0.9-3-0.4
	c-1.1-1.3-2.2-1.4-2.2-2.3c0-0.9-1.7-5.8-2.3-6.3c-0.6-0.5-4.4-2.7-4.4-2.7l5.3-12.4L83.7,33"/>
<path fill="#060608" d="M28.2,36.3l10.2,20.6c0,0-7.5,4.5-9.4,11.4c0.4,0.1-0.5,2.3-0.4,2.7c0.1,0.4,1.2,2.1,2,2.1
	c0.9,0,1.8,0.9,3-0.4c1.1-1.3,2.2-1.4,2.2-2.3c0-0.9,1.7-5.8,2.3-6.3c0.6-0.5,4.4-2.7,4.4-2.7l-5.3-12.4L30.2,33"/>
<path fill="#00AEEF" d="M41.4,57.5c0,0-9.8,3.8-10.2,9.8c0,0,2.6-5.1,10.9-8.2"/>
<path fill="#00AEEF" d="M41.4,57.5c0,0-9.8,3.8-10.2,9.8c0,0,2.6-5.1,10.9-8.2"/>
<path fill="#00AEEF" d="M72.6,57.5c0,0,9.8,3.8,10.2,9.8c0,0-2.6-5.1-10.9-8.2"/>
<path fill="#00AEEF" d="M72.6,57.5c0,0,9.8,3.8,10.2,9.8c0,0-2.6-5.1-10.9-8.2"/>
<path fill="#060608" d="M82.5,69.1c0.3-0.4,2.1-1.7,2.5-1.4c0.4,0.3,2,0.7,2,0.7s0.2,0.9-0.1,1.2s-6.4,6.8-6.6,6.4
	c-0.2-0.4-1.6-4.1-1.8-4.3"/>
<g>
	<path fill="#00588E" d="M28.7,101.2l-4.4,5.4l8.7-21.2l4-2.7l-8.3,20.3l4.4-5.4l-1.2,6.9l3.3-6.2l-0.7,6.8l1.5-2.5
		c0,0.3,0.1,0.6,0.1,0.6s-2.5,6.5-2.5,6.8s-0.2-6.8-0.2-6.8l-3.2,5.5l0.7-6.8l-3.3,6.2L28.7,101.2z"/>
	<path fill="#00588E" d="M86.2,101.2l4.4,5.4l-8.7-21.2l-4-2.7l8.3,20.3l-4.4-5.4l1.2,6.9l-3.3-6.2l0.7,6.8l-1.5-2.5
		c0,0.3-0.1,0.6-0.1,0.6s2.5,6.5,2.5,6.8s0.2-6.8,0.2-6.8l3.2,5.5l-0.7-6.8l3.3,6.2L86.2,101.2z"/>
</g>
</svg>
